/* XPM */
static char *_cc94a68d6d740bada5f1463728632b34DIRG6oPaU8DFvsr[] = {
/* columns rows colors chars-per-pixel */
"64 64 233 2 ",
"   c None",
".  c #020202",
"X  c #0B0203",
"o  c #020B02",
"O  c #0B0B05",
"+  c #06030A",
"@  c #09060A",
"#  c #0C0C0C",
"$  c #040D0C",
"%  c #190500",
"&  c #120B03",
"*  c #180B05",
"=  c #0A1502",
"-  c #061404",
";  c #141302",
":  c #1B1302",
">  c #161509",
",  c #0A0813",
"<  c #130C13",
"1  c #190B16",
"2  c #0E1713",
"3  c #141414",
"4  c #141A14",
"5  c #1A1A16",
"6  c #1A141B",
"7  c #1C1C1C",
"8  c #181718",
"9  c #260605",
"0  c #370A04",
"q  c #24130A",
"w  c #371803",
"e  c #261817",
"r  c #3A1A15",
"t  c #340E16",
"y  c #0A2503",
"u  c #1C241E",
"i  c #172217",
"p  c #10290D",
"a  c #22211E",
"s  c #3C2517",
"d  c #3B3B1A",
"f  c #1C1B23",
"g  c #171621",
"h  c #231A24",
"j  c #222222",
"k  c #2C2B2B",
"l  c #272528",
"z  c #32382A",
"x  c #352E34",
"c  c #333333",
"v  c #3C3B3C",
"b  c #383638",
"n  c #2C2B30",
"m  c #410806",
"M  c #461801",
"N  c #631E17",
"B  c #492606",
"V  c #562A02",
"C  c #572716",
"Z  c #4E2E07",
"A  c #623604",
"S  c #682811",
"D  c #6B361B",
"F  c #78301A",
"G  c #6C112A",
"H  c #5C3725",
"J  c #433C2C",
"K  c #602925",
"L  c #7D2926",
"P  c #334E17",
"I  c #55560C",
"U  c #504D10",
"Y  c #6C4918",
"T  c #7B571A",
"R  c #6D4A12",
"E  c #50522F",
"W  c #6D4C23",
"Q  c #784723",
"!  c #795228",
"~  c #6A4638",
"^  c #7C5531",
"/  c #4F6E28",
"(  c #5E7836",
")  c #586B24",
"_  c #7B6829",
"`  c #62782C",
"'  c #646A26",
"]  c #677110",
"[  c #433E42",
"{  c #3C4741",
"}  c #474846",
"|  c #584A47",
" . c #55504C",
".. c #564C53",
"X. c #4C5754",
"o. c #525253",
"O. c #5C5C5D",
"+. c #585957",
"@. c #485347",
"#. c #6E504A",
"$. c #5A624F",
"%. c #656949",
"&. c #677A47",
"*. c #61615E",
"=. c #7A6452",
"-. c #585665",
";. c #596461",
":. c #636363",
">. c #6B6B6B",
",. c #676B64",
"<. c #6E6674",
"1. c #747475",
"2. c #7B7D7D",
"3. c #716E6A",
"4. c #8D3610",
"5. c #9F2E29",
"6. c #8C3532",
"7. c #993834",
"8. c #9B2F2D",
"9. c #B92D2E",
"0. c #AD3C29",
"q. c #A92F33",
"w. c #A73336",
"e. c #B83739",
"r. c #B8312D",
"t. c #C23B3B",
"y. c #C63335",
"u. c #814D1F",
"i. c #AB6615",
"p. c #95473C",
"a. c #8F4D28",
"s. c #A45724",
"d. c #B5423C",
"f. c #987232",
"g. c #A87527",
"h. c #B77629",
"j. c #B66E3A",
"k. c #B57231",
"l. c #C86D2F",
"z. c #E7793D",
"x. c #C96A18",
"c. c #A93247",
"v. c #CB3D43",
"b. c #884C45",
"n. c #994443",
"m. c #8A5650",
"M. c #A44646",
"N. c #A75647",
"B. c #B15251",
"V. c #966B48",
"C. c #9B7B57",
"Z. c #887950",
"A. c #A57750",
"S. c #9A6764",
"D. c #86706A",
"F. c #AB6666",
"G. c #CD7E45",
"H. c #CC7777",
"J. c #C76D6F",
"K. c #D86264",
"L. c #7C8071",
"P. c #938B37",
"I. c #919635",
"U. c #AF9437",
"Y. c #93A036",
"T. c #8F891B",
"R. c #D1863C",
"E. c #E38A30",
"W. c #958D55",
"Q. c #AB8E4A",
"!. c #A69946",
"~. c #BC9E4E",
"^. c #AD8E5A",
"/. c #B59158",
"(. c #98A548",
"). c #99A955",
"_. c #A7AC58",
"`. c #B3AC54",
"'. c #A99566",
"]. c #AF966C",
"[. c #A9A665",
"{. c #B6A267",
"}. c #BDA97B",
"|. c #B5B975",
" X c #A7BC6C",
".X c #8A8371",
"XX c #C29145",
"oX c #D88C4A",
"OX c #C4A052",
"+X c #C49960",
"@X c #D8B672",
"#X c #D1AC71",
"$X c #EC8856",
"%X c #CAC374",
"&X c #7C7D80",
"*X c #818181",
"=X c #949393",
"-X c #BD9087",
";X c #AF908E",
":X c #A3A197",
">X c #A09EA5",
",X c #A7A8A2",
"<X c #C48C8F",
"1X c #CC9796",
"2X c #D19392",
"3X c #DB8584",
"4X c #DCB981",
"5X c #C8BA9D",
"6X c #DCB5A4",
"7X c #D0B3A7",
"8X c #FFB8B5",
"9X c #F6BDA9",
"0X c #BEC381",
"qX c #DDCC98",
"wX c #EECC97",
"eX c #E9D395",
"rX c #D5EA98",
"tX c #CDE285",
"yX c #FFC2A8",
"uX c #E3D4AB",
"iX c #FFC6BE",
"pX c #ECD0B1",
"aX c #E6E5BA",
"sX c #F5E9BC",
"dX c #CAC5A8",
"fX c #C2BDC4",
"gX c #C8C9C8",
"hX c #CECED0",
"jX c #FFCCC7",
"kX c #FFD1CD",
"lX c #FFE9C0",
"zX c #FBF9CA",
"xX c #FFFDD3",
/* pixels */
"                                                                                                                                ",
"                                                                                                                                ",
"                                                                                                                                ",
"                                                                                                                                ",
"                                                                                                                                ",
"                                                                                                                                ",
"                                          *XO.O.O.2.                        &XO.O.O.*X                                          ",
"                                          c . . . c                         c . @ . c                                           ",
"                                          c @ j l 1.                        >.8 7 8 v                                           ",
"                                        3 . 7 @ 2.                            >.. l 3 7                                         ",
"                                        3 3 5 . :.                            *.. 7 8 k                                         ",
"                        1.>.>.>.      :.a # 8 *.                                O.# j 7 >.      1.>.>.1.                        ",
"                        # . . . O.    . 5 8 .                                     . > j .     :.. . . #                         ",
"                        8 3 l l       . 7 a j                                     7 3 3 7       7 8 7 l                         ",
"                      . . 8 #       O 5 5 3                                         . 7 7 #       . 8 j 3                       ",
"                      . 3 j .       . 7 8 .         :X                              . # 5 3       . # 8 3                       ",
"                    O.. 7 7 :.    ;.@ h g &X        ].                    }.        1.. O > >.    O.# 8 8 >.                    ",
"                    . 3 8 #       . 6 6 g           +X                    /.          . O 7 .       . 8 7 .                     ",
"                    # 8 8 l       5 u 4 6 <         U.g.                XXg.        X + 7 j 7       7 . 3 8                     ",
"                  . # j 8           . o l 6 ,       h.h.                oXh.      . 1 7 j .           . 8 7 #                   ",
"                  . 3 8 3             . O 8 8 l       R./.              l.G.    > . 6 f @             . 8 8 3                   ",
"                k . 8 7 8 o.            . o l 3 x ~ s.oXj.^ | -.o. .=.#Xl.4.~ a . u 2 6             } . 7 8 8 v                 ",
"              *.. @ j 8 8 @ *X          >.2 . 4 X 9 4.z.j.M X + , X M oXl.4.9 X i o l 1.          *X. # 3 7 8 . >.              ",
"              1.8 l 7 8 8 j .             @.. . X B $Xz.j.M e h h q A oXx.oXC # u i X.            . # j 8 8 c 7                 ",
"                    . . @ 8 7 j 8 o.        z . % V R.x.R.B % e e q V oXE.l.0 & # c         } . # . 7 j 3 .                     ",
"                        # . @ 8 4 l -.<.      J w f.h.i.XXw & : ; : B g.i.h.V.r |       O...3 @ 8 7 @ @                         ",
"                            7 . # < , 6 >.,.  =.M #X4XwXwX_ U ) ` ' _ 4XwXwX#XV D.  +.+.. + < < . k                             ",
"                            2.} k X < 6 O . >X| V #XsX5XxX{.[._. X|.'.sX5XsX@XA #.  . . , f 6 [ O.                              ",
"                                  . 6 + 5 5 < : Z {.5X: sX#XeX|.0XsX}.uX; dX@XR X X & l g l h                                   ",
"                                      . . O e : U |.aXaXxX[.qXzXxXuXW.sXaXzX%XU : a 5 5 <                                       ",
"                                          k + . P ).).!.P.eXC.6X6XC.eXP.`._. X/ o O k                                           ",
"                                            =Xz y ( I.T.I.#X}.pXpX}.%XI.U.`.` y E =X                                            ",
"                                              ,.= ) P.P.Y.Y.rXrXrXtXY.U.U.!.I = 3.                                              ",
"                              o. .            +.d W.Y R I (._.).).(.!.T T u.{.U %.            X.o.                              ",
"                              O.X.        @.i %.Z.W D p.wXV.Q ! ! W V.9Xb.D T W.&.y @.        +.o.                              ",
"                            1.. ;.    x c 2 o %.C.D b.kXF.8XiXjXjXiX8XF.kXb.A ^.&.o 2 b x     :.. >.                            ",
"                            c . {   <.+ , $ o %.A.S ~ -Xp.3X<X;X;X<XH.n.-XH Q ^.&.- $ @ + >.  b . c                             ",
"                            v # # . + 1 f 4 = %.C.D C C B.p.C r s H p.B.C B Q ^.&.y 4 f 1 X . . . }                             ",
"                            c . l l j e 7 u = E Z.Y S N.yXV.Y _ _ T A.yXN.F Y '.%.= 5 7 e 7 j j # o.                            ",
"                            c . 3 < # > # # = . U '.Q u.Y Q.`.~.~.OXQ.T a.u.{.E o = ; & o 2 # 3 + v                             ",
"                                                L.d W.P.I._.f.s.s.k.`.(.).[.E .XgX                                              ",
"                                                =Xo ( / / ' ! 4.0.s.f.] ` &.; :X                                                ",
"                                                =X. > ; O : C a.0.0.4.w % ; . :X                                                ",
"                                                  @ X 3 k e 0 N 8.e.d.p.r h 7 ,X                                                ",
"                                                    . 7 6 h 1 t G c.d.p.t , fX                                                  ",
"                                                    $ u 3 6 l 9 G c.e.7.r 7 hX                                                  ",
"                                                    . 4 7 > q m 6.q.t.M.r . gX                                                  ",
"                                                    v . > s M L w.e.e.7.9 }                                                     ",
"                                                    hX. q ~ 6.5.9.t.7.m % gX                                                    ",
"                                                    gXX e 0 8.r.y.t.6.0 q hX                                                    ",
"                                                    fXX % K 5.y.y.t.n.K % gX                                                    ",
"                                                      ..#.b.e.9.y.v.H.#.#.                                                      ",
"                                                          F.q.v.e.H.jXS.                                                        ",
"                                                          S.q.v.e.B.                                                            ",
"                                                          b.w.e.M.M.2X                                                          ",
"                                                          6XM.w.J.2Xm.                                                          ",
"                                                            F.6.2X                                                              ",
"                                                            m.b.                                                                ",
"                                                            m.1X                                                                ",
"                                                                                                                                ",
"                                                                                                                                ",
"                                                                                                                                ",
"                                                                                                                                ",
"                                                                                                                                "
};
