/* XPM */
static char *_ac78b9019284a20bd5ff0c5c9d4f033BDbeIU7ucQEIzBBW[] = {
/* columns rows colors chars-per-pixel */
"64 64 144 2 ",
"   c #040102",
".  c #090607",
"X  c #0B0708",
"o  c #0D0A0B",
"O  c #110D0E",
"+  c #130F10",
"@  c #151213",
"#  c #191516",
"$  c #1B1718",
"%  c #1E1A1B",
"&  c #211D1E",
"*  c #231F20",
"=  c #252223",
"-  c #292526",
";  c #2B2728",
":  c #2D2A2B",
">  c #312D2E",
",  c #332F30",
"<  c #353232",
"1  c #393536",
"2  c #3B3738",
"3  c #3D3A3B",
"4  c #413D3E",
"5  c #433F40",
"6  c #454243",
"7  c #494546",
"8  c #4B4748",
"9  c #4E4A4B",
"0  c #514D4E",
"q  c #534F50",
"w  c #555253",
"e  c #595556",
"r  c #5B5758",
"t  c #5D5A5B",
"y  c #615D5E",
"u  c #635F60",
"i  c #656162",
"p  c #696566",
"a  c #6B6768",
"s  c #6D6A6B",
"d  c #716D6E",
"f  c #736F70",
"g  c #757172",
"h  c #797576",
"j  c #7B7778",
"k  c #7D7A7B",
"l  c #817D7E",
"z  c #847F80",
"x  c #868283",
"c  c #898586",
"v  c #8B8788",
"b  c #8D898A",
"n  c #918D8E",
"m  c #938F90",
"M  c #959192",
"N  c #999596",
"B  c #9B9798",
"V  c #9D9A9B",
"C  c #A19D9E",
"Z  c #A39FA0",
"A  c #A5A2A3",
"S  c #A9A5A6",
"D  c #ABA7A8",
"F  c #AEAAAB",
"G  c #B1ADAE",
"H  c #B3AFB0",
"J  c #B5B2B3",
"K  c #B9B5B6",
"L  c #BBB7B8",
"P  c #BDBABB",
"I  c #C1BDBE",
"U  c #C3BFC0",
"Y  c #BFC1C0",
"T  c #C5C1C2",
"R  c #C9C5C6",
"E  c #CBC7C8",
"W  c #CCCACB",
"Q  c #D1CDCE",
"!  c #D3CFD0",
"~  c #D5D1D2",
"^  c #D9D5D6",
"/  c #DBD7D8",
"(  c #DDD9DA",
")  c #E2DEDF",
"_  c #E3DFE0",
"`  c #E5E2E2",
"'  c #E9E5E6",
"]  c #EBE7E8",
"[  c #EEECED",
"{  c #EFEFEF",
"}  c gray93",
"|  c #EDE9EA",
" . c #F0ECED",
".. c #F1EDEE",
"X. c #F3EFF0",
"o. c #F5EFF1",
"O. c #F2EFF0",
"+. c #F2F0F1",
"@. c #F3F1F2",
"#. c #F3F3F3",
"$. c #F4F0F1",
"%. c #F5F1F2",
"&. c #F4F2F3",
"*. c #F2F4F3",
"=. c #F5F3F4",
"-. c gray96",
";. c #F6F4F5",
":. c #F7F5F6",
">. c #F6F6F6",
",. c gray97",
"<. c #F5F2F3",
"1. c #F8F6F7",
"2. c #FAF6F7",
"3. c #F9F5F6",
"4. c #F6F8F7",
"5. c #F9F7F8",
"6. c #FBF7F8",
"7. c #FBF7F8",
"8. c #F7F9F8",
"9. c #F8F8F8",
"0. c #F9F9F9",
"q. c #FAF8F9",
"w. c #FBF9FA",
"e. c #F9FBFA",
"r. c #FBFBFB",
"t. c #FCF8F9",
"y. c #FDF9FA",
"u. c #FCFAFB",
"i. c #FEFAFB",
"p. c #FAFCFB",
"a. c #FDFBFC",
"s. c #FFFAFC",
"d. c #FFFBFC",
"f. c gray99",
"g. c #FDFDFD",
"h. c #FEFCFD",
"j. c #FFFCFD",
"k. c #FFFDFE",
"l. c #FDFFFE",
"z. c #FEFEFE",
"x. c #FFFEFF",
"c. c #FEFFFF",
"v. c white",
"b. c #FEFCFD",
/* pixels */
"e 0 0 w 7 0 e 9 0 q w 9 < x { x.x.x.a.u.x.x.x.a.` G h r 0 8 8 0 0 9 8 0 0 0 9 9 s A ) u.x.x.x.1.x.8.x.x.q.f.W w 7 0 0 9 0 0 7 r ",
"- O % % % & @ @ $ = @ $ V | x.f.1.x.u.u.x.' V p : % + @ # % % % % % $ # # # # # $ @ & 0 N ( u.x.q.p.q.q.q.x.x.W 3 o % @ % % @ : ",
"< = - & : % % 1 - o 4 ( x.x.x.@.x.x.x.Q s - # o & = = = = = & % & * = = = = = * * - - # X * s J x.x.4.x.x.x.x.q.a.a % - # - & : ",
": - % = % = % % X x u.a.>.q.f.x.u.T y # @ - : * % = = = = = - = & = = = = = = = - % & - - & # $ w W p.*.x.p.4.x.x.q.M # = % & > ",
", % & : & & : # B @.x.>.x.a.x.` d = O ; = # = = - = & & % # @ @ @ # # # # % % % - = * * & % & - @ @ g [ x.>.x.q.[ u.x.A @ % > > ",
": - * % % ; @ J x.x.q.5.1.x.B : o * - = - = & = & $ @ % : 6 r s h k h s y 8 1 = O @ % = - - = & % : o 1 P x.x.@.x.x.&.q.D @ & : ",
"1 # = & : @ W q.>.x.=.x.>.r + % : % % & & % % # = 8 x J / X.5.5.u.x.x.x.x.5.` ~ B a > @ @ & = = % = - @ @ x x.x.q.q.x.a.x.S o < ",
", % : & # T x.u.a.=.x.W : o 1 = & = = = % @ 2 l ^ X.x.x.x.x.x.x.x.x.a.u.x.x.x.u.x.u._ A w % @ - = = % : = + a 1.x.1.x.>.x.&.k % ",
"< % - @ H x.&.x.x.@.K $ & = % * * - * O 3 F &.u.x.u.a.] T A c s i i p h b G ~ ..x.u.a.x.1.I q @ % = & $ = :   r @.x.x.u.x.x.>.a ",
": = o V x.&.x.@.q.F + % = = = - = @ - B 1.u.5.x.) N w > # O @ @ @ + + O o @ - 4 s K u.x.u.x.&.F > @ - % : % : + u @.5.u.>.x.x.[ ",
"1 @ s a.x.x.>.x.D o : % * % : % # y ( x.u.x.R i = # @ & : > : = > - = : : = % $ $ % 2 C ..u.x.u.) y @ = # % ; % o f x.q.x.>.q.x.",
"% 3 x.u.1.x.q.F o - * = - * = $ B &.x.x.Q r # $ * - : & + o O @ @ # $ # @ # & - * - $ O 1 S a.1.o.a.k $ = - % - * O B a.a.x.u.a.",
": W x.x.q.x.~ - - * # % = @ = R x.x.=.x & % & = = + o : e l A U T E T F b p 3 % @ = - = & # r ] x.] x.M @ - = % - $ = P x.x.x.x.",
"F >.x.x.5.>.1 $ $ - > = % 4 ~ x.x.Q 7 . = = % & = i G ' x.u.1.a.x.x.u.u.x.x.] T l : o % : % o < E x.6.a.n O # : % = @ 8 X.q.x.@.",
"q.q.x.x.x.a + = : % % O : ) ..x.P > o < = @ < p ^ 1.x.x.x.x.&.) ^ ) ] X.5.x.x.x.u...V ; o : : # & H a...x.l = % = * & @ l x.x.x.",
"x.p.q.q.J o = = % = = - ^ x.x.F % # - * o w ! x.a.x...K z q < > : - : 6 i M Q 5.u.u.a.( p O % - & + I x.<.u.8 % & = & # - ( >.x.",
"x.u.u.@.: & & = - % & L x.x.D % = > @ + V u.&.x.' x 1 $ # % @ % O - + # + % & 0 J 1.u.x.x.M & $ = = % ! x.&.) - & - - % $ p x.u.",
"1.x.x.h % - = & = @ v x.5.E - # = % - R u.x.1.m - @ % # @ & - 6 7 4 7 : = # % # . 0 ! 1...x.A & * * = : ..u.x.M + - = - % = ~ x.",
"a.x.Q % * & & - # q x.u.] > # = & = ! x.1.^ 7 o % - + 4 n P ' 1.u.I 5.` I z 4 % : @ - N x.5.5.A @ % - # g x.&.5.7 $ & = * o z x.",
"x.x.g @ : # = = * ~ &.x.q O > % & ~ 5.5.T = % - O 6 P u.=.x.x.1.T 0 x &.x.x.] A < @ & @ l &.x.u.c O % : @ U a.x.G @ - % * - > ] ",
"u.( - & = = : O z 1.x.A @ % ; @ P 5.u.H O * % = C a.x.x.x.X.^ V = % # K x.1.a.x.&.f @ > o M ..x.5.8 @ * # w x.1.&.3 & = % > o J ",
"x.n O = & - % : ) x.X.; - = O k u.u.W % > # > ~ 5.x.a.R x 3 @ , 6 # = 9 8 n 1.u.1.x.M o = % K u.1.R & * : @ K x.x.b o - & & $ i ",
"&.6 $ = * * + x u.x.z o ; & 6 &.x.( > # o 7 ) x.x.' x : @ O @ % 6 = = : 0 3 8 T ' 1.u.v $ % > ' u.x.i o : @ p u.x.~ % & = & = < ",
"I # - & & * & ( x._ 1 % - + H x.5.y @ ; : ( x.u.( 8 o + : h K ~ ^ l & % ; : 5 = l x.&.x.q % $ h x.u.R & % & > _ u.u.0 # % : & > ",
"g @ = = = @ a 5.x.M # ; @ w a.x.F % - @ J x.5.( , o > c &.x.` n 0 - - % & = % % & k ~ x.( = = = ( x.1.w # = @ A x.a.b o * = % < ",
"4 % & & * @ F x.1.e @ * # G x.=.6 # & i x.1...r 6 w R x.F 8 # O O & & # : & - = = @ < z u.s = + v x.x.n # ; @ d x.x.D + - * % > ",
"- & = & % - ` x./ & % $ < 1.x.P # - + ( 1.1.n 6 a p ) w # @ - = 1 : & - & % 5 & * & o 8 e g w @ 7 1.x.E $ - $ 5 u.x.Q % - % & : ",
"< # - & # w 1.x.S O > @ h x.u.p # o g x.x.S = = i p d   ; = & > y 6 @ % : # l e O # 6 s B M 1 8 , ^ 5.] : & & : ' u.' - = & = > ",
"1 @ = = O c x.x.f O > O P u.] , % # J u.x.x 3 i & @ = y # : # 6 > 5 = - % w d W x t e > - * 6 r * F a.u.9 # * % ~ 5.&.1 $ = & > ",
": = * = o D x.1.0 # = % ) x.I & % > ..=.X.5 1 x ] R n 1 r o i ! g 1 % = % 1 ] ` 0 7 4 % > S z 0 @ M x.a.t @ = # R x.1.4 # = & > ",
": = = = @ R x.] 1 & # 3 &.x.N $ $ q x.x.Q & w ( u.x.U 0 3 p U y = = * % * o n ..c 7 1 d ] x.J 4 O n x.u.y # = $ U x.=.4 % = & > ",
"< # = & = ` 1.' = = @ e a.5.c $ O h &.x.K   k x...x.R * ; G = @ = % = = - % 7 x.u.8 # 7 x.x.J @ O n 1.x.p % * # P x.&.3 & & * > ",
": * % % : ' a.^ & = @ p x.x.h @ O n x.u.J   c x.&.x.G   e > O > & = & * - # 3 ] =.8 o r 1.x.C $ # b x.1.t # - # ! 1...1 % = # 1 ",
"> & * % > ' x.^ * = @ i a.x.g $ @ k x.x.F o b x.&.x.W < 4 + > @ % = = - & & - ) ..< O d x.x.v # # N x.5.6 % = = ~ x.` = * & = > ",
"< % = % > ' x.^ & = # i x.x.k @ % d x.x.T O d a.=.=.x.u @ > & - : & # & % : ; &.Q # @ C x.x.e % % P x...: % & > ` x.W @ - % * : ",
"< % * & - ` x.) = = # w x.x.N @ % y a.1.X.% 1 5.x.&.] * = & = & * & = : # # ; &.g # % &.x.' 1 @ > ` u.R % * % 7 u.x.F o : = # < ",
"> % % - & / x...1 * # 1 &.x.I # % 3 ' 5.x.i X I a.x.A + : = & & & = % = = % 8 Q : o h x.x.G % $ r 5.x.b # : O h x.x.j O - = % < ",
"> & % : # I x.u.0 @ * : ( x.( : % $ I x.u.T o 6 x.x.9 @ % & - = - : = % = % 8 i . ; ) 1.1.t @ # Z x.x.w @ : o J x.x.7 % & % = - ",
"> & & = @ V x.x.k o : & F x.&.u % @ f x.1.1.s . x x.7 F 9 $ # + o @ = = & % 8 : @ Z =.x.T @ - - ` x.R - % & , ` x.! = & & % % < ",
"> & = % O l x.x.G O > o h x.x.C @ & & ^ u.x.] < @ f , R x.W J V l 6 * % % ; 8 o h x.5.&.3 % # x x.x.l @ : @ p x.x.M @ & = - @ w ",
": % : # % 6 &.x.` = * = < ] x...4 # % y a.1.1.( > 1 & w a.x.a.x.x.1.U w < : 1 x 5.x.x.f O & , [ x.( - = = % J x.&.7 # = % : # V ",
"1 & = = & = ~ 1.x.y $ = . V x.x.A @ > O N u.u.u.' g @ 8 r i V M l g : : 6 8 Q 5.u.&.b O 1 # G x.u.k @ * @ 0 u.x.U $ = # : & = ) ",
"8 # * = * @ n x.x.H + - & 4 ] 1.u.t @ & @ H =.1.u.K . : 6 o   o     : 0 < P &.x.x.c % >   g a.a.P @ ; % % J x.u.y + = % - # u x.",
"x @ - % = $ 5 u.1.x.6 % = + x x.5.` < = = $ m x.x.H 7 C ' P A M V T v o p x.x.' i @ - @ y x.x.] 1 = # * t &.x.U $ - & - * @ P x.",
"~ * = = = = $ G x.x.L o = * % R x.u.~ = % = O e R x.x.u.x.1.x.5.x.` 4 @ T u.Z > # : X i &.1.1.w O * : % ~ x.u.w # = = = & 4 u.u.",
"x.0 @ : % & & 7 x.] x.i @ : # 3 ' u.a./ 3 . : = : r H ..u.x.x.x.u.d . 3 V 4 X - = @ g u.x.a.p % : & + S x.x.V o = & - # # F x.x.",
"x.S % * & % ; # F 5.u.` - # : @ 7 x.&...&.i O + = @ % 1 q j x l x r > 0 O & - + 1 G u.x.] p % # : o h 5.x.! : & * = = @ 0 a.u.x.",
"a.u.2 @ - = = % , ..u.1.P O : = @ 2 [ x.1.x.G 7 @ @ = & % O # % @ % 7 : % O < c ] a.x.( 0 # & > O e 1.1.u.8 O - * * = @ L a.x.x.",
">.x.A o : = $ = o a x.&.6.V o ; : @ , P x.&.x...G p : % # @ # @ @ @ @ = t D ` x.x.u.G , O ; = @ e  .=.x.s . > = & = $ a u.x.x.q.",
"x.x.x.7 % $ = - : @ b x.6.x.z O = > # # k ` u.x.x.u.' R V l k l z N P ) &.5.a.x.Q i o $ > & + e <.x.x.b   : ; @ - & : | x.>.x.q.",
"x.| x.Y @ - % * & = % K <.&.x.B # & : & + < c Q 1.x.x.u.x.x.x.=.a.x.x.x.x.u.K p = O - = # # c x.&.x.c o < % % : = @ K x.#.x.q.@.",
"f.x.>.x.x . : $ & * % & E 1.<.u.P : @ * = = o : e M R ` &.u.u.x.&...^ D d 3 % O & > & @ : J u.u.x.k o @ - = & % o b x.a.8.q.x.k ",
"q.x.x.x.@.9 @ - = = & = % H x.1.x...s + $ * = = O # $ = 3 9 q w 7 , & % & & = ; % O ; h ..x.a.] r . > - ; - * + s x.x.x.x.x.N = ",
"x.>.x.>.x._ < @ > $ - & & @ z x.1...x.Q r $ # % : - = = = # + @ $ & = = = = % @ : d E x.&.x.K > @ ; % & # $ @ w >.=.x.>.x.W % < ",
"( x.q.x.x.x.P : @ : $ = : - O e ( x.1.u.u.W x > % O @ % & & = - = $ @ @ O % 0 c ) &.x.x.] d - % = - = % < + w @.x.1.>.x.| 2 = < ",
"w ` x.8.q.>.x.J % $ - % * & = @ = b [ x.u.x.x.X.T M i 7 < : : = > 3 q g A ~ =.x.5.x.' M : + = & = & = = o w ..a.q.5.x.@.r @ % < ",
"& r x.x.@.x.&.x.P : @ - & * & - = @ < b ) x.a.u.x.x.x.1.] ` ) ) ' &.a.u.u.x.x.u.~ b , O = = % ; = - % @ h =.x.>.a.a.q.s O = % 2 ",
"1 o n q.x.q.x.X.5.T 3 o - = = & & * % @ - i F ( 1.u.x.x.x.x.x.x.5.a.x.x.1.Q m u * @ $ = = = = % : + = A x.5.=.x.x.&.s @ * : = - ",
": = o A x.=.x.x.x.q.[ i o = % - - & & = & # # = w s n G T R T P I S c i 4 = # # * % & & % = ; = . w T >.u.x.x.x.X.i # & - = = < ",
": $ :   S x.@.>.&.x.5.q.A - @ * & = - & & = = * # @ + + @ $ & = + o O # % & & = & : * % - % + & b [ x.x.x.@.>.' t + = * & ; O 3 ",
"1 @ & * % b x.x.x.x.q.=.x./ p $ & * = = & & = = = = = = = = & % : ; = = = = = = & = = = % % a _ x.q.@.x.q.x.^ 4 o = ; # & = % > ",
"> & & & & @ k u.x.>.x.x.5.x.q.W q = o % : - % = = = = = = = = = % & = & % % & = ; # o & s ~ x.a...q.q.q.x.C % $ : % % : * % > : ",
", # - - @ = $ 9 ` x.>.a.x.q.x.1.x.~ l 3 $ # & = & & & & & & % % * % & - - & # # & 7 B ' x.x.a.q.x.x.x._ a @ = = = & * $ * = % > ",
"> % = $ : & - @ ; K x.x.u.x.x.u.1.u.x.=.I g 3 = & & * * & * = = = & & & % = w c Q u.x.5.x.x.5.x.q.q.J : @ : % - = = & * : & $ , "
};
