/* XPM */
static char *_51062ab52df47adaa677a966d06da37DOOOhREAdV9ZAIJl[] = {
/* columns rows colors chars-per-pixel */
"64 64 163 2 ",
"   c #BF8F3A",
".  c #BF9133",
"X  c #C08E2B",
"o  c #C2912B",
"O  c #C28E35",
"+  c #C38E39",
"@  c #CC8E3B",
"#  c #C59136",
"$  c #C99335",
"%  c #C5933B",
"&  c #CA953C",
"*  c #C7993D",
"=  c #CC993D",
"-  c #D0973D",
";  c #D19B3D",
":  c #C88F42",
">  c #C69643",
",  c #CA9642",
"<  c #C79943",
"1  c #CB9B45",
"2  c #CB9649",
"3  c #C79B49",
"4  c #CC9C4A",
"5  c #D09746",
"6  c #D19C44",
"7  c #D19E4A",
"8  c #CD9E51",
"9  c #D09E52",
"0  c #CDA145",
"q  c #CEA14C",
"w  c #D2A146",
"e  c #D3A24C",
"r  c #D8A64D",
"t  c #DEAB4D",
"y  c #DDB14E",
"u  c #CEA253",
"i  c #CFA459",
"p  c #D2A353",
"a  c #D3A955",
"s  c #DEAC53",
"d  c #D2A65A",
"f  c #D4A95B",
"g  c #DCAC5B",
"h  c #DEB050",
"j  c #DEB05A",
"k  c #E3AD4D",
"l  c #E9AE4D",
"z  c #E5B14E",
"x  c #E9B34F",
"c  c #E3AE53",
"v  c #EAAD52",
"b  c #E3AE59",
"n  c #E8AF58",
"m  c #E5B154",
"M  c #EAB355",
"N  c #EBB855",
"B  c #E5B35B",
"V  c #EAB55A",
"C  c #E6B85D",
"Z  c #EBB95C",
"A  c #F2B451",
"S  c #F0B55B",
"D  c #F0B859",
"F  c #D7A661",
"G  c #D5AA62",
"H  c #DEBD6E",
"J  c #E5B563",
"K  c #EAB662",
"L  c #E6B863",
"P  c #EBBC64",
"I  c #EABC66",
"U  c #EAB963",
"Y  c #E5B66B",
"T  c #EBB76C",
"R  c #E6B86B",
"E  c #E6BA6F",
"W  c #E6BB6B",
"Q  c #ECB96A",
"!  c #EABC6B",
"~  c #E5BB73",
"^  c #E2BD77",
"/  c #E5BF74",
"(  c #E6BC73",
")  c #EABF71",
"_  c #EDBF71",
"`  c #EABE75",
"'  c #EABD74",
"]  c #E5BE79",
"[  c #EABF7A",
"{  c #EBBE7B",
"}  c #F0BF70",
"|  c #F0BF7A",
" . c #F0C26E",
".. c #E7C175",
"X. c #E9C071",
"o. c #EEC375",
"O. c #EDC176",
"+. c #EDC377",
"@. c #EDC475",
"#. c #EDC175",
"$. c #E7C17C",
"%. c #EBC179",
"&. c #E8C27B",
"*. c #EDC178",
"=. c #EFC078",
"-. c #ECC278",
";. c #EFC378",
":. c #EDC37B",
">. c #EFC37A",
",. c #ECC578",
"<. c #EFC57B",
"1. c #E9C37C",
"2. c #EAC17F",
"3. c #E9C27F",
"4. c #EFC07C",
"5. c #EAC47D",
"6. c #EDC57D",
"7. c #EEC47C",
"8. c #EBC27C",
"9. c #EFC97D",
"0. c #F0C173",
"q. c #F1C274",
"w. c #F1C374",
"e. c #F1C27A",
"r. c #F1C678",
"t. c #F1C57A",
"y. c #F0C47D",
"u. c #F3C77E",
"i. c #F1C47C",
"p. c #F3C97A",
"a. c #E7BF81",
"s. c #ECBE82",
"d. c #E6C381",
"f. c #ECC381",
"g. c #E9C780",
"h. c #EAC483",
"j. c #EBC682",
"k. c #EDC580",
"l. c #EDC482",
"z. c #EAC284",
"x. c #ECC385",
"c. c #ECC584",
"v. c #EFC684",
"b. c #EFC686",
"n. c #EDC583",
"m. c #E9C883",
"M. c #EDC884",
"N. c #EFC885",
"B. c #EEC885",
"V. c #E9C78A",
"C. c #EEC68A",
"Z. c #EECB8B",
"A. c #EFCB8F",
"S. c #EEC989",
"D. c #F1C480",
"F. c #F1C682",
"G. c #F1C583",
"H. c #F1C984",
"J. c #F1C58A",
"K. c #F1C88A",
"L. c #F0CE8F",
"P. c #F1CA89",
"I. c #F1CA90",
/* pixels */
"M N N m 1 1 4 7 z.O.L V c V 6 = 1 p :.0.U M m m 1 1 1 4 1 1 V c 1 1 1 1 1 4 1 4 m k = & , 4 6.k.M m 4 , 1 1 < 4 6 7 :.c.A.V.S.g.",
"c c c s 1 1 p p a.y.B M c c w w , 4 &.5.R K V m 4 4 1 1 7 e c c 1 4 1 1 4 4 6 e m c & # 4 u &.c.N B e 1 1 < 1 1 p d 1.k.6.o.r.e.",
"e 7 e e 1 4 X.,.c.r.B M - 6 c s 6 u g.L.1._ Z k 4 4 1 1 s s e e 1 4 , e B m m c & & , 4 1 q O.f.B s 4 % # # 4 4 H ^ P.D.I Z C K ",
"> > 1 1 p d 1.g.,._ C M & = c c 0 p ~ k.y.q.C s 4 1 e w c c 1 , 4 4 7 r c c m k , & , 4 4 d O.O.B s e = % > u p m.N.D.q.B c c B ",
"0 4 1 8 ` [ N.h.K P V M M k 6 e / ) Q K K B e 4 1 1 b s 6 w 1 4 1 1 b c = & & & 2 1 * 0 :.7.R B e 1 % # < p E :.x.7.L B 7 7 7 w ",
"1 1 u i 6.D.7.:.m B V M z c e f h.r.Z v v c 4 4 1 1 B B , 1 1 4 e 6 m c & % 1 < 4 1 0 p { e.K N e = # O e f &.H.G.w.B s 7 8 1 1 ",
"1 u ( $.H.,.I K N m V c = 0 R ] c.e.Z l ; , 1 > 1 1 b B 6 7 1 1 c t 6 , < p ~ / 4 q X.o.R B V l % # % 4 ( { N.g.K B w 1 1 1 1 1 ",
"p p k.N.5.#.Z x M V c c , 4 &.I.C.{ K m # * e e 1 e c b 1 1 4 e c m & & 4 p 1.z.w d f.:.L z l v , $ # 4 { f.N.$.B m 1 < 1 1 4 1 ",
"..g.c.y.U V M V V M & 1 ` s.H.1.P m V V < u #.[ B s 7 4 1 6 m c , = = 4 ` { c.k.z.` B B V c , & @ $ * 4 k.G.I M e 4 4 , 4 1 1 4 ",
"B.P.S.y.U N M N m x , 1 O.z.,.r.m V B b p d ) e.B c 7 1 7 e t c , % 0 f z.c.P.B.7.0.U N N c & & , 1 i i #.E j s 1 1 1 1 4 1 u 4 ",
"c.c.c.6.B M M M M z 1 4 6.J.L K Z m 7 p E #.R J 7 7 1 1 c c = & , e ~ 1.A.x.1.:.Q C M k M M & , W ] z.[ ! B r 7 4 1 1 1 1 8 ) 6.",
"u.y.6.w.C N N N M k p i $.D.B V c c 1 u ,.r.K c 4 1 7 7 s c & & = 4 6.S.V.c.y.p.B m D M M c 4 1 ,.6.J.e.B t 1 4 1 4 1 1 p f &.J.",
"K K K Z c M m m & , ` 6.P.D.B v - , 1 i &.:.K M q 4 b s 6 6 & 6 1 u 1.S.c.,.L B m N M c = 1 _ :.K K K K w 6 1 1 1 4 1 p E &.k.c.",
"M N M N V S c c , < s.C.g.7.Z V & # % 8 1.D.U k 4 1 B m & # & 1 q d &.H.,. .Z m Z V c c % % O.1.K M N c 6 4 1 1 1 4 8 i &.k.c.P.",
"V D m M M c 6 & 1 4 s.J.c.6.Z c & # 1 u { 7.K z e 1 m c & % 4 q ..1.D.:.K m V V N c 6 & # 1 ,.g.Z M M c 1 1 1 4 4 p ~ &.J.N.k.k.",
"v V k m V c = % 0 e f.c.k.#.M M & % 1 4 7.7.K m e 7 m c & # 1 q 1.c.D.e.U N N v z k - # & e ) 1.V m B s 1 1 1 1 q u 6.H.c.N.k.5.",
"V M & $ N B 1 p ~ k.c.:.U N V V & & * q z.D.C M z c , % 1 = 1 p &.y.K V M N M m , $ & > ( 1.U M V B e 1 % % 1 p ] k.k.N.V.6.K N ",
"m c 6 - c c 4 8 &.N.N.7.K N c c & # 4 f ~ { K l N c & % 1 1 p 8 :.q.K V N N c s , $ & < &.k.L N M c 6 1 & , 1 4 $.k.k.P.c.6.K M ",
"M N c c e 6 1 4 1.c.C.D.K V N M & 1 ! / u e B Z M c & % % 4 ( 7.J B m V N m 6 & % $ , 1 &.k.B N N c , % & , 1 0 1.H.k.H.k.:.K M ",
"x V c b 1 < 4 p 5.c.c.y.J V M z & 1 { f.q 0 s c V c & , 1 u 6.k.U V V V c k & % % & p f 5.D.B M z k < > 1 1 4 e 1.k.k.H.:.! C M ",
"m m e 7 1 1 1 4 g.N.k.r.K V N m & < { x.m z e e V m = , 1 8 &.1.V M M c w 6 % # 1 1 E ..k.D.C M ; 6 1 1 4 1 1 4 1.k.k.6.I K V M ",
"c s 1 , 4 1 p d 1.k.O. .K V c k & 1 z.K.B z 4 1 c m 1 1 u d ` p.V M m c 6 , % & 7 1 7.H.k.7.m t # % 1 1 4 1 p f 5.N.k.,.J V M M ",
"0 e 4 1 0 4 E &.k.y.I C M c 6 = 7 0 ] x.M M 4 1 M M 1 u ) { U B V c e 6   % < , 1 4 1.N.g.{ e = 1 1 4 1 4 p ~ 1.k.N.B.r.K M M N ",
"1 1 1 1 q u 6.J.f.r.B m N c & % 4 0 1.K.M M 9 0 c M 1 u :.r.C M m s 1 1 * > 1 , 1 q $.m.c.{ < # 4 > 1 4 4 p 6.S.k.k.k.:.V M M N ",
"1 4 1 0 $.d.9.G.U m V N M m & # 4 q 1.6.M M 4 q m m 6 1 B Z M m w w # & 1 1 1 1 4 8 7.,.L C # @ , 1 1 p / 5.g.k.S.&.U Z c V V N ",
"1 7 1 0 z.z.O.q.V V N M M c & # & 0 g.J.B k 1 0 M m 0 4 B V m m 4 , # # < 1 1 4 8 d { q.j s = & < 1 8 d ] c.c.c.c.,.U V M V c m ",
"4 4 * 1 x.J.! Z V V M M V M & # 1 e { { p 6 1 0 m m 1 1 c V M c , > 7 1 < 1 1 4 [ ( U K 6 & $ X # 4 Y [ N.S.S.S.D.r.B m N m w 7 ",
"1 4 e f { { C z N M M M c k & & 1 p ` { p , 1 1 m c 1 1 c V N m , + , < 1 4 u p y.} B c & + = # # 4 O.H.P.h.c.c.u.w.Z M M c 7 1 ",
"1 p ` { U V V N M M V V 6 & , 7 ` ` I B & % 1 4 V B e 7 c N N m = & 1 1 4 u ( e.R Z M M & & 1 1 1 4 ` k.c.c.k.6.R K B c w 1 1 1 ",
"1 q x.G.B z V V N m c k % % 1 e x.D.B t = # 1 4 c s 4 7 c M N c # & < 1 p p _ i.C N k k & , , 1 4 u :.c.C.H.:.0.C B m s 1 4 4 0 ",
"1 q { D.B M V M V c 6 , < 4 4 4 1.[ 1 $ # , c B 7 e 1 7 c M N c - # > 8 ) ) ! B N c 6 & & & 1 1 < 8 7.c.c.:.R K V c e 7 1 4 1 < ",
"9 a ,.r.B N n M c c & # 4 p 4 p &.:.& $ : , k m 1 7 1 e c N N c & % u d O.#.C m l c , % # # 1 4 e p 1.g.c.r.B m z m 6 1 4 8 > 1 ",
"z.:.U V V M V k - & < u ( 1.z.1.Z c 6 # # & c m 0 1 c m N N V b 7 1 s.{ B Z V m ; & # % 1 1 4 4 ^ z.C.D.K M N M p 4 4 1 1 1 1 4 ",
"y.0.Z m c c V m & % 4 d / H.y.r.m t & # & = m m 4 1 m M M M V V 6 e D.D.C N c c & # & & 1 > p u z.J.y.0.B m c c 1 > 1 4 1 4 p 8 ",
"B Z V m r 6 & # 1 u ` 6.k.,.R B 6 & # # = 1 c c 1 6 B Z N M N k < q ` D.B m 7 & # & & , 1 p ` 6.x.y.L M M m e 4 4 1 e 4 1 i ` 1.",
"M V c s 1 1 % & 4 d 1.C.1.#.U k & & & % 1 w m m e w t c V V N m u f &.D.B k , # % % = 1 1 8 &.c.D.0.M x m b e 1 1 > 4 1 u i 1.g.",
"V M r 6 * % < e ~ D.J.] G p c z - & % # , 6 m V m s 6 - c V V V [ #.H.{ 7 & O $ 4 1 4 1 > u &.c.R B M m 7 4 1 1 4 1 1 4 ~ &.H.N.",
"M c 6 , % * 0 p &.P.[ Y p 4 c x & # & % 1 e m M B c & $ c B K U D.O.:.Y , & % = 1 > u u i f ) O.V m m b 4 4 4 1 1 1 u d 6.H.&.&.",
"M c , , 1 4 ) 7.g.7.d p b c 6 & # # 1 e g B V m 6 & $ & m U q.{ p 1 1 > % & , = 1 p ( &.7.O.U B N c e q 1 1 1 1 1 p ( 1.H.&.d p ",
"z s & & 1 4 7.K.c.` q 6 k k & & & # 1 p B C M k & $ $ ; t J y.{ e = = # $ & 4 1 4 p &.z.k.q.C M M c 4 1 1 1 1 9 e p 1.c.z./ u 1 ",
"1 1 1 1 1 u 6.1.p p t m 6 , & o 1 q ( z.C.7.1 = , & z c 4 p 1.k.M s 4 1 & $ 1 u ^ ` u r V Z m m e 4 4 4 4 1 < e ] c.1.&.p 4 c M ",
"1 4 1 < 8 i ~ ` e 7 c t $ # < 1 4 p E #.:.Y < $ & & c m w p r.` C s 1 < & % p i :.#.p e c M c c 4 > 1 1 < 1 p f z.g.&.` p e m c ",
"4 4 1 p ) ( g 8 B c 6 = $ = ! { D.( p 1 1 < % & k m 7 e s t K J p , & # * q ( y.U U c m V B e 1 1 < e 4 1 i ` 1.B.&.d e s s 6 6 ",
"> 4 1 p 0.! q 4 k k & # < 1 ) f.u.! , O $ # 6 , t B 8 p B N m b 4 & & # p f ` w.V V V V c s 4 1 4 1 4 > 4 i 1.c.,.) p 6 c B 1 4 ",
"1 0 1 1 K B # % & $ & 1 E ` d p B B , & 6 6 c c 0 p ` q.B h w 6 < & , 4 ~ / L B N V M c e e 1 4 1 1 0 u ) 6.N.z.i p s c 6 6 4 1 ",
"1 1 , e c c & & 1 < 1 8 { { p = z s & % 6 7 c b q d { q.B M w 1 . % p F y.q.U N M N c s 7 1 < 1 1 4 8 u &.k.&.1.4 r s c 1 1 4 1 ",
"m B B c = & O & E y.~ ~ g 9 c l = = < 7 s c e 4 &.:.L B V M % % , p E ~ I C m M V V e e 1 < 1 4 , p ~ $.H.&.d u c c 6 6 4 4 1 1 ",
"B c m c & & , 7 z.x.K.:.0 6 c c , , 7 w y m e p z.e.Z N v c , # 1 p &.p.C M N V m m < 1 4 1 4 1 e p 1.N.k.&.p 7 c c 1 4 1 1 e 1 ",
"0 4 4 p > 4 ..z.C.:.U M M c = $ 2 q ^ &.B C ` &.S.:.B M - & 4 < 5 i &.p.C N M m 4 e 1 1 4 1 1 e ^ $.J.F.T V N k 0 0 1 4 1 6 c m ",
"1 4 1 1 e a [ C.H.#.B m c s 7 > 8 f ) w.L R k.S.D.0.m t & & 1 1 6 8 $.6.B V N c 4 4 1 1 4 1 p p z.k.:.0.B c B c 1 1 4 1 1 e s m ",
"4 4 1 q E :.k.D.J B r 6 & 6 Y y.,.) R I { 7.H.x.R B 6 & & % < 1 1 u 6.H.J V N z e 1 4 1 1 8 ` 5.J.y.L m w 1 4 4 4 7 m m m c e p ",
"4 < q u 1.P.7.q.V c 6 & # 1 ` C.m.y.B B D.S.,.| V M & O & % , 1 4 d ` O.K M c m 1 1 1 1 p d 1.g.i.w.B s w 0 4 8 1 e s c B s 1 1 ",
"4 p E 1.C.x.Y B w 1 , % = q &.C.m.7.e e 1.m.L P M c & # 1 1 4 e ` ) I B V m 6 7 0 4 1 8 ( [ H.k.U B e 4 1 1 1 1 c c 7 7 7 4 1 1 ",
"4 p &.P.x.{ B t , , , > q u &.N.5.` p p 1.9.m M M c 6 % , < u i 7._ U z N m 1 4 < 1 8 d 7.y.r.O.M s 4 4 4 1 e w M m 7 4 4 > 1 < ",
"6.6.k.y.Y B r w , % < 4 ) 7.k.$.p f ) 1.B.p.B x = = , , 7 p ) 1.i p c M N c 4 4 1 p ( 1.H.y.R B r 1 1 2 4 7 c c 1 4 1 4 4 4 4 1 ",
"z.P.7.w.m z , 2 % % 1 p f.J.z.] p 4 1.I.$.e.K l % % 1 4 1 q &.z.u e c V c c e < 7 p 1.N.1.O.B c 4 1 4 1 4 1 B c 8 1 4 1 * 4 4 9 ",
"D.:.Y B e , , # > q ] x.H.,.i 0 1 q 1.7.C M V z 7 1 3 4 1 7 7.c.V m N m 7 7 1 e ] 1.C.x.Z M 7 4 1 1 , 6 c b e 4 * 4 1 4 4 q / 1.",
"u.q.K g 1 , % % 1 e 1.c.,.E u 4 1 q 1.D.C M V z 1 1 1 4 9 p ) :.V m N m 7 4 1 q 1.5.C.7.B c 7 4 1 < 6 e c b 4 1 1 4 1 4 4 u &.N.",
"K B e 1 % % < 1 1 q 7.k.W B 4 1 1 q 1.7.C M V c 0 1 < p / #.I B V V N c 7 4 1 0 z.B.H.y.C c 7 1 1 1 b s 6 7 1 4 1 1 1 1 1 q :.c.",
"B c 1 = # & 1 4 4 4 &.6.B c 7 1 1 q 1.7.C M V c 4 1 1 8 $.5.B M V M c s 4 4 1 e 1.k.y.q.B s 7 1 e 1 B c 1 1 1 1 4 1 1 1 1 u 7.C.",
"V m 6 & & 1 1 1 4 4 1.y.B m 7 1 4 q 1.7.C M V c 4 1 1 8 1.k.B A M m r e 1 1 1 q 1.7.R B e 7 1 4 < < B B 7 4 1 1 4 1 , < 1 i 1.P.",
"m k & % < 4 1 4 4 q 1.6.V c 7 1 4 q 1.7.C M V c u 4 4 p :.r.C M M c 6 1 1 1 4 q 1.7.K c 7 1 < 1 1 e B s 1 > 1 4 4 1 < 1 p G ] k.",
"N m 1 1 1 4 1 1 , q z.f.C l 7 3 4 q 1.7.C M V c 4 1 4 4 b B V Z M m 7 4 1 1 4 9 z.D.Z z p 4 1 1 m c w 1 4 1 4 1 4 1 4 p ~ { k.B.",
"V V 6 1 1 4 1 4 , q z.c.K c 4 4 4 q 1.f.C M V c e 1 1 e m M V B M m 7 4 1 < 1 4 z.y.V k 4 3 1 7 m m 6 , 4 1 1 1 1 1 1 p [ J.H.B."
};
