/* XPM */
static char *result[] = {
/* columns rows colors chars-per-pixel */
"64 64 24 1 ",
"  c #5C6633",
". c #5F6935",
"X c #636C36",
"o c #646E39",
"O c #677236",
"+ c #697237",
"@ c #66713A",
"# c #6A753C",
"$ c #6E793E",
"% c #70773F",
"& c #717C3E",
"* c #6C7740",
"= c #6E7B41",
"- c #727E41",
"; c #77813F",
": c #758243",
"> c #798644",
", c #7C8A46",
"< c #7F8D48",
"1 c #818D47",
"2 c #818E48",
"3 c #849149",
"4 c #88954A",
"5 c #8A984C",
/* pixels */
">#X-:$$;:<:#O&oX##&&&#:+@,>&##=:-$>>::>>>=**><-*::-::::<::<:=#@$",
"1>O-$ @&:>XX+$#$&$$##$@o=<-$@#:13>:>>:::-*=*=>--<-&:>>>:*:>:>$:$",
"ooX=@X$@+#.X#>-+o&#$$&#+>:$$&#-1:>=->>,>>>->:::<:-&O,::::,::<>>:",
"#X#:#+$$+o#X&@#&X##&&>>>>&@+-->-=<$=-->:1::>-#-*-::O,>:.::<,>>>>",
"&Xo&>>-+X###$+>$@$o$@&$$@oX%,>>:<2=>-*->>::=&=-=>-<:>:=*==,<>:==",
"&&-1>>1;$>::->>:===>;$&&&o##->><->>:#->>><1:*::>::>1>::*>=>>>>&=",
"#->:&->$:>,>-::>3&&$:$&$##+#-1:1>>2:>:,>>>=-2>>>,>::>>>>>->=::>>",
"==1,->>&=>:>>:>,$$:O$$$##:=&>-=#>>>*-:->,:-:1>:>->=-=-,>=:>>:==4",
"=,<,:,<,:<$>:+$:&,>X@&#@;:=::@@#*->->-$>>::,->,:=$$-:<>::-*><::>",
">:>><::,=,;>:$+$:$:$+$:#$:$:;$@$=:11>-:=4::3::>3::=*<>:>><<,>>>>",
">,,<,:=::>=$=:><:$>:=$:#$=,$;$$#+&:@$-::::>:<,>,>>>=<>=3:=,=>:::",
">:>:==@:>-:>::#:,.-,>=$++.;>$$$$#&>->>,>$:=@$$>>>><,,>:33:<,,*:>",
"==:::,:,>$.;><=:&&:$+->#. @$$$;;>-+>>:=#&:$.@#=>:::,:::><,>>:=#=",
"<::::,::,,<>>>>:&$+==::>@ . @#$:,>->=-==::&oo$$:##>,:>:>:=,><:*=",
">>:>=<::<:,>$:>=:+$:,$X#$ X$;@ :>,:-,>=>:&&$$=>:$=:=:=,>>:>::>::",
":>:>:,::4,$@#>$$&&$.#&#XO:$;#@@@&:>,>#=>>$$&3>:-:::=*>:::>:::::,",
":>><>-:$:,,==:@$#$$@$;:@,::::@@@#:&>:$>>:2-->:::;:@#-,<=-,:>>::,",
"::$$:-:&$>>,,,#$@##>:>;>>#=,$>;;#>,>:#=:>,,>>-#>+$+$:,3<:;=>,:<>",
"=-::<:-@$=>,$>:;#++>=:;;::,:$##,1,>&-::,,>,>>;$&+:==<,:>:,,>:=>:",
":::::::-##<$@$$&+X$>:::$=>::>&;:->:>&:=:>-:>>1&$>>>::><::>=>::,<",
">1>:,>>:::=*#$@:;&@;:<4>+>:*<=->::>>::*>:1:>>:==>:>,:>><:,::$:>>",
"*-,--,>3::>,:+$::>:@$:3:$$+#<:<:$&>=,3::>31>-=#>,:-:,:$::,::=<>>",
"=:>-:--,<>>>$Xo$:$;;$$:><$:$1<3-@@>>>:,:=:=-&::<3:-@=>#-::$O@#>3",
"<>:>::->::>+$#.=::::>::::::>:-->=#3::=->:>::>::$:-1:===>:=::,,,>",
">=:>><1<=><$#@*<<>>:=>>,:::::=>:::>:1-=-:>:3::>$$::::;&,:$<>><:>",
"=#>,,==><3::=$$$:>>:=:=:,,:=>:,1:->&,-:>,-:>::#@&:$$:1><::<<:>;<",
"*:-::>>::>>>>:$@:<>><<::::<:>>%>3=:>:,-&>><$::$#$:,>:>>:::<;::::",
"==>::::>:::>:>:*<>,><<::,:,=,:;:3=>>-1:::$:-:>##+::>:=:$>:;$>,,,",
":=><>:=,>3<::::>:><>:>*::>>:>,::,-*>:>*::&>:;:&>>:==:$:::#+:,<:$",
"<:>:>3>:::=>::>,>>:,<::>:3$::>::-:*->:-:$$:>=:>>:>;<#$$$$#=,<,:3",
">:,>>::>:>><==:=,,::::>:$::>=*<--1,-:---=>:>>:3>=;::$+$&:::<>>:<",
"::>:>>:,::=>=$>*=<<::>::==:1>=:=-11-:>>&=;&::>:::=<>3;+$:<,:><::",
":>>:<>::<>=:::<>::,>>=>,<<,>>:::->>>>:>1>:>>:-$#>>:-$=$$:>3><>,:",
">,==>>:*=<>:>::>>:,<,:,<:,>>>:::&%1>:->::><>-$&-:>>$@@$&$==><>=#",
">:=:=:<>:::,:>:>>,><:>,<::><::::-&->>:1:$>:&>-,-#@#&$o&$&:@=<>=:",
"=>><<,>,:::<>>,:::,::>=:<::::::<4&+%>*1=-,O&:-::=$$&:$+X&3:>:$;>",
":<:=,:>>=><=:<,:=::#>,::*:<<,:::>o#===,:3:$,:$::,>&&#%#$;#>::$>:",
">3<:>,>==,===>,:#::><>,,:,::,::*-:<::::><>:#&&&;1:-&$##-;;>:<+$:",
"::=:>>:-=:==>>><,>:=::>*:,.><:,>->:-:,::::-#&+&&:=>&+@+=@,::::>:",
"==*:>,1>>:==:>,><<>=*,:@:,=,:::,:>:>:=>=,:$=:-#XX#>$&$$+$:&$$&>>",
"=@#>,>&>:>:>#>>:>::>&>3:,::,:>><1><,--::&+##$+X #$:#-$&$:$@;$:,:",
"$$$;>:$::>=>:<::>=>:>>>>,:::::<<::::1:>:&&<$&XXX$$#o@+$$#@@;O$;<",
":&$$&::-:::,>>><$+-<>:<>:,<,::><-:1>>$o&-&>::&$#:&$#+#$@#$$$$;@<",
"1<:>&--$>=:,>::<=:>1>31><,::<<>>=:--#:>,:>:>$3=#>-::-=$@$$$$$+@$",
"$>,>$>>&3<>=>:=,>>:==3>:,,,:$,::,>:>@:=:>::>::$=<$$,=>>$$$$::;#$",
":>>>@$>,,=>#=>>,,,>:>>:-:>::@$#>>===>>=*,::>$::=-:+&:>:$O@:::$:=",
"=-O::&:>$>>o>-=#:,::$=::>>=:$+:::::=:<,:>>><>::>::1$::::$$:$:$>:",
"$#@$&,,::1>=>=>>>::::=>->>::>,:=>>,3<::>:::44>=#::>$<#$:::,:;#::",
"-=@+O&>>:>>1--::>=:,:=-:,>:-:<>:<<*><<>:->->11=-&&:3<OO&:,,:#=<-",
"3>:$o>1:>>>,::>:::>:::->><>1,:,:,3>>:<*-:>>->:::,:::>:$&:,-:=>>-",
"><>>>:=@#:,:$>&>>>:::>1:>::=:::<,=-:>:->>:::->::>>-:::=:>1:-#-:>",
":>:>>=#@#&::-:#$::::1=#::=$#$=>3--=:>>><--:-->,>::>>,$$@>&-,X#:3",
"=>&##&#=:>>:>>--+1:>1::>>=$:;>==:1::-=><><>-->>,>:>>=$:#$-:<&O>>",
"3>#$:&$>:=>*o&&,&&:>&$=>>=$:::::::>-::3<-:5>:<->::>>><>=:::=:#->",
"<&X+-=>3:>>::>:>:&::$&$:>$->&&,4:>>->:>,<=<:=,:=:>>>:->:$:==:>>>",
">$+$:>:1:>-:1-=#$+:$$;;-:#>>=::$::,:<>:>,<>::--*::>>>:>:$<<>>::*",
",:>>:>X-:<>=<$$$&:&&$+$&$=,<<>>:->>,::>:=>:>>::<>-=:,#:>:>>:==-:",
";:<:::o&-=>:>$&=&#->>#$$=:<>::4>><<,=---::,>===:,,::&-,:>>==::##",
"$,::;$#$$$$###$-::<33<>:>::><:>:=>::<:-$::::><<>>>,>>:>=,>=:>>,:",
"<,::::::>,::-$&>::$$=#::>,:::,::>>:>>,::><==<:><,>:>>:><1==<>-->",
"::$::::=::::::$#;$###&&;:=>@+$=,:==::>=<3<>>5,=>>>#:>>>>-:>::,::",
"::>>=:>4&@$=:>#.@#$$;>$:=$:$&-:>==*>>>><>>::,1:<>-#::>31-*:>:1==",
"#:>:-<,:$,=@>::==:$$+$$;<::=>:=:>><,>::=::>>:>:,:<:<:-,:o@=:-<:3",
":+::,>:,;:==<::::,:$$##;31::=4==<*=::,>::,>33><1>1:-,:--><>::,<4"
};
