/* XPM */
static char *_3b127b47fb14fe1d5827dc28e4fcbc76w3vNCaXlgusxYdO[] = {
/* columns rows colors chars-per-pixel */
"64 64 167 2 ",
"   c None",
".  c #010101",
"X  c #0C0A05",
"o  c #070708",
"O  c #0B0B0A",
"+  c #100D05",
"@  c #100E09",
"#  c #151207",
"$  c #14110B",
"%  c #19160C",
"&  c #1F1B0B",
"*  c #121212",
"=  c #1D1C1D",
"-  c #27220B",
";  c #30280C",
":  c #272214",
">  c #292316",
",  c #2F2B1F",
"<  c #232425",
"1  c #2A2B2B",
"2  c #26292B",
"3  c #3C3422",
"4  c #3C372C",
"5  c #353024",
"6  c #2B2F31",
"7  c #302F30",
"8  c #2D3133",
"9  c #343434",
"0  c #383738",
"q  c #3B3A3A",
"w  c #36383A",
"e  c #443A24",
"r  c #443D2E",
"t  c #7A680C",
"y  c #51462C",
"u  c #594D2D",
"i  c #584D30",
"p  c #5D5132",
"a  c #5A5039",
"s  c #635533",
"d  c #6A5B36",
"f  c #665B3E",
"g  c #6E5F38",
"h  c #665832",
"j  c #73633B",
"k  c #79673D",
"l  c #393E41",
"z  c #3F4041",
"x  c #3E4549",
"c  c #444344",
"v  c #484747",
"b  c #43494E",
"n  c #4D4D4D",
"m  c #504F4F",
"M  c #454D51",
"N  c #4E555B",
"B  c #535352",
"V  c #525A5F",
"C  c #5C5C5B",
"Z  c #585757",
"A  c #665C45",
"S  c #615F5F",
"D  c #6E6140",
"F  c #7C6B42",
"G  c #716959",
"H  c #555E63",
"J  c #596166",
"K  c #5B646A",
"L  c #5E686D",
"P  c #636363",
"I  c #686666",
"U  c #696867",
"Y  c #686768",
"T  c #6C6B6B",
"R  c #646A6E",
"E  c #706E6E",
"W  c #71706F",
"Q  c #626D73",
"!  c #667278",
"~  c #68747A",
"^  c #747374",
"/  c #777779",
"(  c #7B7B7B",
")  c #797676",
"_  c #89740E",
"`  c #8D7810",
"'  c #947E10",
"]  c #806E41",
"[  c #837144",
"{  c #8D7A46",
"}  c #8E7A48",
"|  c #917D49",
" . c #9A820C",
".. c #A1890F",
"X. c #97824D",
"o. c #9B864D",
"O. c #9E8750",
"+. c #9D8850",
"@. c #A18A51",
"#. c #AD9555",
"$. c #B09857",
"%. c #B89F59",
"&. c #B69C5B",
"*. c #BCA25D",
"=. c #C1A65D",
"-. c #C4A95E",
";. c #C7AA62",
":. c #C9AE63",
">. c #C0A561",
",. c #CEB265",
"<. c #D1B465",
"1. c #DABB6A",
"2. c #D2B568",
"3. c #E4C46D",
"4. c #E8C76F",
"5. c #EAC96F",
"6. c #EDCB71",
"7. c #F1CE72",
"8. c #6D7980",
"9. c #737F87",
"0. c #807F80",
"q. c #758289",
"w. c #79868E",
"e. c #7D8A93",
"r. c #848382",
"t. c #898685",
"y. c #8A8887",
"u. c #8C8C8C",
"i. c #908E8E",
"p. c #92908F",
"a. c #818F97",
"s. c #85949D",
"d. c #929191",
"f. c #9C9A9B",
"g. c #999796",
"h. c #A19E9D",
"j. c #8B9BA3",
"k. c #8E9EA8",
"l. c #93A4AD",
"z. c #96A7B0",
"x. c #9AACB6",
"c. c #99ACB5",
"v. c #9EB1BB",
"b. c #A4A3A2",
"n. c #A9A6A5",
"m. c #ADABAA",
"M. c #B1AEAE",
"N. c #A1B4BE",
"B. c #B5B2B1",
"V. c #B6B3B2",
"C. c #B9B7B7",
"Z. c #BDBABB",
"A. c #C1BEBD",
"S. c #C4C1C0",
"D. c #C5C2C1",
"F. c #C5C2C1",
"G. c #C8C5C4",
"H. c #CFCBCB",
"J. c #CECACA",
"K. c #CCC8C7",
"L. c #D0CCCB",
"P. c #D1CCCC",
"I. c #D3CFCE",
"U. c #D2CECD",
"Y. c #D0CCCC",
"T. c #D4D0CF",
"R. c #D5D1D0",
/* pixels */
"                                                                                                                                ",
"                                                                                                                                ",
"                                                                                                                                ",
"                        o o o o       O o o o o                                                                                 ",
"                        O o O           O o O                                                                                   ",
"                        O . o           O o O                                                                                   ",
"                          . O             o                                                                                     ",
"                          . o           O o o                                                                                   ",
"                        O o o o o o o . . o o o o o o o o o o o o o o o                                                         ",
"                        O O o o o o o o o O O $ $ $ $ $ @ $ $ $ $ O o o                                                         ",
"                        O o . . . . . . o o g X.} } } | #.@.} } { 3                                                             ",
"                        o o . . . . . o o o } ] % % $ : :.k $ % % O                                                             ",
"                      o . o . . . . o p O o | @.  . . @ =.d . .   O                                                             ",
"                      . . o . . . . X X.e . | :.s   . % =.g .     *                                                             ",
"                      o . . . . . . . } | e #.7.;.p y u ,.j 3 y F i                                                             ",
"                        o . . . . . . % s ,.@.<.6.3.3.3.2.k *.3.3.d                                                             ",
"                          . . . . . . . $ *.j =.6.6.6.3.| #.4.5.3.d                                                             ",
"                          . . . . . . . @ $.j =.6.6.6.1.-.1.6.6.1.s                                                             ",
"                          . . . . . . . @ $.j %.4.6.6.=.} -.6.6.+.                                                              ",
"                          . . . . . . . @ $.} j j 1.6.6.6.6.6.7.X.                                                              ",
"                          . . . . . . . @ #.3.1.j >.1.1.1.1.1.<.F                                                               ",
"                        o . . . . . . . : *.6.6.;.j d y 3 3 3 3                                                                 ",
"                        o . . . . . . . s 3.6.6.6.3.3.{                                                                         ",
"                        o . . . . . . . h 3.4.4.4.4.6.|                                                                         ",
"                        . . . . . . . O 5 f f f f f f r =                                                                       ",
"                      o . . . . . . . c ^ / / / / / / / ^ B <                                                                   ",
"                    O . . . . . . o 1 n C C C C C C C C P T T C                                                                 ",
"                    . . . . . . . < m.S.S.S.S.S.S.S.S.S.M.E I B *                                                               ",
"                  o . . . . . . * 0.S.P.P.P.P.P.P.P.P.P.P.H.M.i.<                                                               ",
"                . . . . . . . * ( S.H.L.L.L.L.L.L.L.L.L.L.L.P.V.2                                                               ",
"              o . . . . . . * ( G.H.L.L.L.L.L.L.L.L.L.L.L.L.P.V.2                                                               ",
"            o . . . . . . * / G.P.L.L.L.L.P.P.P.T.P.P.P.P.T.G./                                                                 ",
"          o . . . . . . * / S.H.L.L.L.L.P.Z.t.r.r.r.r.t.t.r.E                                                                   ",
"        . . . . . . . . 9 m.P.L.L.L.L.L.P.h.S d.p.p.t.I I 7                                                                     ",
"        . . . . . . . = v U A.P.L.L.L.L.P.g.r.V.u.y.r.E T 9                                                                     ",
"      . . . . . . . . 9 ^ ) T A.P.P.L.P.S.n c I / / i.H.T.P                                                                     ",
"      . . . . . . . . 9 r.u.( I u.G.P.P.Z.Z Z.M.t.t.r.^ W 9                                                                     ",
"        o . . . . . . * P u.u./ I I p.A.A.n u.d.g.d.u.I P 9                                                                     ",
"          o . . . . . . * I u.d.u.r.Z T T 9 I 0 B B 0 ^ ( q                                                                     ",
"            o . . . . . . * P u.i.d.d.r.T v M.Z u.y.C G.T.P                                                                     ",
"              o . . . . . . O 0 T ^ ) ) T y.C.Z y.y.C S.P.P                                                                     ",
"                . . . . . . . . , D r c y.H.A.Z u.y.C S.P.u.                                                                    ",
"                . . . . . . . . u 6.[ y.Z.m.V.P r.y.C S.P.A.c                               6 8 8 x q.w.w.V                     ",
"                . . . . . . . . u 6.[ y.( 1 C ) I y.C G.T.H.)                     x L L L Q j.l.l.l.z.z.w.                      ",
"                . . . . . . . : [ 6.+.G Z 9 9 I P u.m u.g.f.T 1 b b b b b H q.q.q.s.v.v.v.v.l.q.9.8.M x                         ",
"            O . X X . . + X . | 6.6.4.,.y 9 2 z c Z w H J J J e.z.l.z.l.z.x.z.j.k.j.~ J J K V                                   ",
". . . . . # & % ` _ $ -  .t X | 7.6.5.6.O.9 2 ~ s.s.j.v.v.v.v.v.x.x.x.x.s.q.H 2 1 6                                             ",
". . . . . % - & ' ` % ; ..t O | 7.6.6.6.1.4 < s.N.v.v.l.s.s.s.a.N b b M l                       . . . .                         ",
". . . . . . . . + + . . # X . | 6.3.3.3.&.4 < H ! ! ! R P P P w                         o . . . . . . o                         ",
"                . . . . . . . > e a A A 4 9 1 n v T B I P.H.H.Z         o o o o . . . . . . . . . . .                           ",
"                  . . . . . . . < f.C.Z.Y 9 9 U P d.T T P.L.L.m . . . . . . . . . . . . . . . . O                               ",
"                . . . . . . . o P H.P.P.y.c r.r.P d.T T P.L.L.n . . . . . . . . o o o o O                                       ",
"                . . . . . . . * n.P.L.L.H.G.P.y.P d.T T P.L.L.n . . . o o                                                       ",
"                . . . . . . . 1 V.P.L.L.L.L.T.y.n u.) T G.P.L.B . .                                                             ",
"              . . . . . . . . ^ H.L.L.L.L.L.P.M.c ( u.S n.P.H.Z                                                                 ",
"              . . . . . . . * i.P.L.L.L.L.L.L.H.C ( d.C n.P.H.Z                                                                 ",
"              . . . . . . . 9 A.P.L.L.L.L.L.L.H.C ( d.C n.P.H.Z                                                                 ",
"              . . . . . . . 9 A.P.L.L.L.L.L.L.H.C ( d.C n.P.H.Z                                                                 ",
"            o . . . . . . . n S.P.L.L.L.L.L.L.H.C ( d.C n.P.A.Z                                                                 ",
"            . . . . . . . * f.P.L.L.L.L.L.L.L.H.P / d.P b.R.p.                                                                  ",
"            . . . . . . . * b.P.L.L.L.L.L.L.L.P.h.P u.( P K.i.                                                                  ",
"            . . . . . . . * b.P.L.L.L.L.L.L.L.P.M.Z u.r.n G.i.                                                                  ",
"            . . . . . . . * b.P.L.L.L.L.L.L.L.P.M.Z u.r.n G.i.                                                                  ",
"            . . . . . . . * b.P.L.L.L.L.L.L.L.P.M.Z u.r.n G.i.                                                                  "
};
