/* XPM */
static char *result[] = {
/* columns rows colors chars-per-pixel */
"64 64 107 2 ",
"   c #000404",
".  c #000A04",
"X  c #00050A",
"o  c #000C0D",
"O  c #00100E",
"+  c #000410",
"@  c #000E11",
"#  c #000D19",
"$  c #001112",
"%  c #0F1817",
"&  c #00141C",
"*  c #021A1E",
"=  c #031C23",
"-  c #0B1E25",
";  c #031F28",
":  c #0C1D28",
">  c #101F27",
",  c #062023",
"<  c #0D2126",
"1  c #042429",
"2  c #0D232A",
"3  c #0C292E",
"4  c #132227",
"5  c #13242B",
"6  c #18252C",
"7  c #132A2F",
"8  c #1C2D2F",
"9  c #082D33",
"0  c #142730",
"q  c #182730",
"w  c #142B32",
"e  c #1C2D33",
"r  c #1E2F38",
"t  c #163035",
"y  c #1C3136",
"u  c #1C3139",
"i  c #262627",
"p  c #282625",
"a  c #2E2E2C",
"s  c #30342F",
"d  c #212E33",
"f  c #223135",
"g  c #2F3032",
"h  c #23353B",
"j  c #25393E",
"k  c #293A3E",
"l  c #343434",
"z  c #373935",
"x  c #393937",
"c  c #353639",
"v  c #343A3C",
"b  c #3A3B3B",
"n  c #3E403F",
"m  c #1E3A41",
"M  c #253D43",
"N  c #293E44",
"B  c #243F48",
"V  c #303E40",
"C  c #3F3E41",
"Z  c #264146",
"A  c #294146",
"S  c #264249",
"D  c #2A444A",
"F  c #2E494D",
"G  c #334247",
"H  c #3E4141",
"J  c #31454C",
"K  c #38444A",
"L  c #314A4E",
"P  c #3B4A4D",
"I  c #2D4650",
"U  c #2F4950",
"Y  c #354C52",
"T  c #394D53",
"R  c #354F58",
"E  c #3D4F59",
"W  c #375057",
"Q  c #3A5055",
"!  c #37525B",
"~  c #3C535C",
"^  c #3F585E",
"/  c #375461",
"(  c #3D5661",
")  c #3E5962",
"_  c #404141",
"`  c #4F4E4E",
"'  c #504F4E",
"]  c #51504F",
"[  c #524F50",
"{  c #4F5050",
"}  c #42565E",
"|  c #42585E",
" . c #545353",
".. c #585756",
"X. c #575855",
"o. c #595956",
"O. c #585759",
"+. c #5B5A5A",
"@. c #425760",
"#. c #445C64",
"$. c #495E64",
"%. c #465F68",
"&. c #495C68",
"*. c #5E6460",
"=. c #626565",
"-. c #676867",
";. c gray42",
/* pixels */
"{  .` ] ] ' `  .` ` ' ] ' [ [  . . . . .' [ [  .[  . . . . . . . . .` [  . . . . . .X.{  . . . . . . . . . .X.X.{ X.O.O.O.+.O.p ",
" ._ v b _ b b b b n C _ H n _ _ C C C n n _ _ C _ H _ _ C C b b b n H H H H H H n n n H n n H n b H n H H n H H K H C C b C -.a ",
"{ g , k @.} } } @.} } @.} } } } } } @.} } } } } } } @.@.D M 9 3 D Y #.#.$.%.#.&.%.$.$.$.#.$.#.#.%.#.#.#.$.$.$.$.$.$.P V   X =.a ",
" .l h J @.@.@.^ } } } ~ } ~ } ~ ~ } } } } } } } } } @.@.Y M 1 1 Y ! %.%.#.#.#.#.#.| #.| #.#.#.#.#.@.#.#.#.#.| | #.&.T V   @ =.l ",
" .c | @.R Q ! F M M N B N M N B N M N B N M N M N M Y ! I A   . ~ ( ~ ~ ^ R D F F F F D F F F F F F F F F F F D ~ } T K   O -.l ",
"X.c } } Y Y Y D Z D D N A D D D D M D D D D D D Z Z U W A j o o ~ ( R ! ~ Y F F F F F F F D F F F F F L F F L D R ~ J k X o -.l ",
"X.c | } M Z A Z m M D D D D A D D D D S D S S A S S S S 3 &   o ~ ~ D F D F F F L F L F F S D F F S D F F F F F D Y w <   O =.l ",
"X.c | } M S D A M D D M M M D A D M M A D A D Z S S S D 7 =   @ ( R F F Y F F F F F F F F D D U D D D F F F F F U F y :   $ =.g ",
"..l } } N A A D D D D M m M D D Z M M D D S A D N S D D 7 *   @ R R I L F F F U F F F F J Y F F F Y F L F F F U F J e 5 X @ =.l ",
"..l } } Z D S S D N D M M D M D D M M S N D D Z D D Z D w * . @ ( ~ D U F F F F F F Y F U F F F F F F F F U J D F Y y 5 X @ =.l ",
"..l } } A D D D S D S Z D D D D D A D Z D D Z D D D D J 7 *   @ ~ ~ Y F Y U Y D S F F F F F F F F F U F F U Y Y U Y y 5 X @ =.l ",
" .l } E 1 w 3 u D D A D N S D A Z D A D S A D D h 3 w e 1 ,   @ ~ ~ w y e M F F F F F F F F U F U F F F F L N w u u w 5 X @ -.g ",
"o.l @.} & = * f J D D D D D D D D D D D D D A L f = ; = , , X & ^ Q ; 5 : k Y U F U F L Y F Y J U U U U Y Y k - 2 2 5 5 X # =.l ",
"o.c J N ; , ; 2 w w w 7 w w w w w 7 w w w 7 7 w 5 ; ; : < < @ o h h 9 5 0 q y y y y r y y u y y y u y y y y w 3 w 6 8 5 X @ =.l ",
"o.l M h = = , ; = * = * * * * * * * * * * = * * = - - - - % O . < 4 7 5 5 4 5 5 2 5 < 4 4 4 4 4 4 4 2 4 4 4 5 0 5 6 6 6 X $ =.l ",
"+.l # #   X               X X o o o o           . . .           . X X X X .   X o . o o o o o o o     .     X X X         @ =.l ",
"+.c $ & O O O O O $ O $ @ o o     O o $ $ $ $ $ $ O O O o O $ O @ @ $ $ o o @ & O O $ @ .     @ o $ $ @ $ $ o @ @ @ $ $   @ -.l ",
"+.c D W | | | | | | | } | F M @ . y D ( ~ ~ ~ ~ ~ ~ ~ } ~ ~ ~ ~ ( ~ ( ~ ~ } ~ ~ ~ ~ } u = o @ k D | | | } @.} @.} } @.} o @ -.g ",
"+.c R ~ ( ~ ^ ( ( ( ~ } #.Y D o o M I ( / ( / ~ ! / / ! ~ ~ ~ ! / R ! ! ~ ! ! ! ~ / ( M w o $ F ! ) @.@.^ ~ ( @.@.~ ( ~ o o =.l ",
"O.c $.&.J Y Y Y P Y L } | ~ L . o } ) ~ ( ( W D F F D F F D F F F J F F F D F F F ! ( P K   . | #.@.@.#.} L Y L Y T T J   o -.a ",
"o.c $.#.Y T Y Y Y T Y } @.W J   . ~ ~ ! ~ ~ Y D U F F F L F F F F F F F F F U F F W ~ J v . O } ( ^ ~ | Q Y T Y Y Y T P   o =.l ",
"+.l &.%.Y Y T Y Y T Y L Y D N o O ~ ~ F D Y U U F F U U F F F F S D F F U U F U F F J w :   @ | ( Y Y L Y Y Y Y T Y R L   o =.l ",
"+.c $.#.Y Y L L Y Y Y T Y D N   o ~ ~ D F F F F F F F F F F F F D F F F F D D F F F Y y 4   $ | ( Y Y Q Y Y L L L T T Y   o =.l ",
"+.l $.#.Y P D L T Y Y Y R D A . o ~ ~ F F F F F D Z D F L F Y F J F F F S S S F F F L t 2   o | | Y Y L T Y J D L Y Y Y . o =.l ",
"+.l #.%.P Y J Y Y Y Y Y T D Z . o ~ ~ F J Y U U F D F U F F F F U F F F F F D F F F U u 2   O | ( L P Y Y Y L F L T T Y   O -.l ",
"+.c $.%.L Y Y T Y Y Y Y Y F A . o ~ ! F J Y U U F U F F F F F F F F F F F F Y J Y J Y u 4   $ #.@.P Q T T Y Y Q L T T L   o =.l ",
"+.c %.#.L T Y R R J D D D D A . $ ~ ! w e w M Y F F F F F F F F F F F F F F Y M e y y w 4   $ @.~ h k h J T L Y T T Y L   o =.l ",
"+.c $.%.Y Y T T T J A D A S N o @ ( R : 5 1 j Y U F Y Y Y L Y J Y U Y U W F W u : 3 1 6 7   $ @.} e d 8 A T Q T T T T T . o =.s ",
"o.z Q Q D D D D D D D D D D D o . h M > q 5 e f u u y y y r y r r y r u y u u w 6 7 0 w 5   X N N f h f h k k k M h V h   $ =.l ",
"+.c J J N A A M Z A A Z Z Z M o . : 5 6 5 5 5 4 2 : : 5 2 2 < 4 2 2 < 5 2 < 2 6 5 5 5 6 4 o o e 8 f f f d f f e d d d d   $ =.l ",
"+.l @ & X + X + X X + + X X +     X X   X X X X X X X X o o o o + X X X X X X X X o X o o     o o . o   X X X X .   o o   $ =.l ",
"+.l @ & X o o o o o o o o o @ @ @ o o o o o o o o o @ $ . o     o O $ o @ $ o O O o @ o @ @ o @ . o @ @ o o o o @ $ o X   $ =.l ",
"+.c N Y / ! ! ~ ~ ~ ~ ~ ~ ~ ~ ~ ~ ~ ~ ~ ~ ~ ~ ~ ~ ~ ~ ~ S u @ o 9 m ~ Y R R R T R R R R T T R R R R R ! R R R R Y R M 9 . O -.l ",
"+.c J ~ ( ( ( ~ ~ ~ ! ~ ~ ! ~ ~ ~ ~ ! ! ~ ~ ~ ! ~ ~ ~ ( I M X o m D R R R R R R Y R R R Y R R Y Y Y R Y R R Y R R ~ S y o O =.l ",
"+.v | %.~ ( ^ W F F F F D F F F F D F F F F F F F D ~ ( R F o o W ~ R R ~ U M Z N B N B S S Z S D N B B B N D B R ~ J A . $ =.l ",
"+.v $.#.~ R ! W D F D F F F F L F F F F F D F F F U ! ~ D Z X @ R ! U R R F Z Z D D D A S S Z S D A D D D N D N J Q D h   o =.s ",
"+.c | $.D F F D F D S F L F F F F L F L F Z Z Z D F F U r < X o R R Z Z Z D S A A D N D S M M A N D D D B D D D D A 6 &   $ =.l ",
"*.c @.$.F F F F F F D F F F F F F F F F F D F D F F F Y y 5   @ R Y S Z A A Z D S D D S M Z Z Z D S D N N M M A D D w =   $ =.l ",
"+.l $.#.D F F F F L L L F U U F F F F F F Y F U F F F F u 5   o R Y B D M D D D D Z D D D D D A D D D D M M M D S D e *   $ =.l ",
"+.z $.@.F F L F F F F F F D F F L F L F U F F F F F F Y y 4 X @ R Y S S D A D Z D M M N D S Z D M M M D D M B D D D 6 =   $ =.s ",
"*.l $.#.F Y F U U U U U U S S U F F L U U U U F Y J Y Y y 4 o o ! Y S D D D A D D M m A D D D D D m Z D D D A D D J w =   $ =.l ",
"O.z $.^ w u w M F F F F F F F F F F L L F D F U M w u u w 4 X @ R Y 3 w 5 h D S S Z S S S S Z Z S M S S S D u 7 w q 3 <   $ =.l ",
"O.z %.^ = 5 : M Y L J Y Y W F L L L L L F D F L k 1 5 4 5 5 o @ ~ Y * = * y D D D D D D D D D D D D D D D J f * - = > %   $ =.l ",
"X.l R J 2 0 5 w u u u u t u y y u u y y u t t u w 6 0 7 w 6 o o r q 1 - 1 5 7 7 7 7 7 w 7 7 7 7 w 7 7 7 7 w 2 , : : - ,   $ =.l ",
"..l A A 2 5 5 3 5 5 5 5 2 5 4 2 4 5 5 1 3 4 2 4 4 7 5 5 5 5 @ o & ; - = - = = = = = = = = * - = = = = = = = = , , , < ,   $ =.l ",
"O.l $ $           .         o o o .           .                                       o . . . .   X         .         .   O =.l ",
" .l @ & o @ o @ @ $ $ O O O O . . o o O O O O O O O O O o $ $ $ $ $ O $ o $ O $ o @ $ $ O   . O @ @ $ @ o O $ O $ $ $ $   $ =.l ",
" .g M Y ~ ~ ~ ~ ~ } ~ ~ ~ Z y o O k F } } ~ } | @.@.@.@.| | @.( } | | } | @.} @.@.} @.D M o o y D } ~ ~ } ~ ~ } ~ } ~ ~ X o =.l ",
"X.l Y ! ~ ! ~ ! ! ~ ~ ~ ) S m o o J R #.) ) ( ( ( ~ ( @.~ ^ ^ ~ ^ | ^ | | ~ } | ^ ) #.Y D o X N U ( ( / ~ ! ~ ~ ! ~ ~ W . O =.l ",
" .l #.#.D F F F F F D ~ ) R L O o | ) @.) #.! Y Y Y Y Y Y Y Y Y Y L Y Y Y Y Y Y Y ~ #.Q Y X @ } ) ( / ( W D F F F F F F . o =.l ",
" .l $.#.D F F F D F F W ~ D N . o } ( } ^ } R Y Y L Y Y L T Y Y Y Y Y Y Y Y L T Y ~ | Y G   o ~ ~ ! ~ ~ W F F F F F F D . o =.c ",
"{ g $.#.F F F D S D L F L e -   O | ~ Y Y Y J D D D Y Q Q Y Y P Y Y T Y Y L D L Y J R h 8 . @ ~ ! F F D F F F F F F D Z   O =.l ",
" .l $.#.D U D F D F U F L y 5   o | ^ L T Y Y J L J L T Y Y T Y L L T T Y L J L Q Y Q k d   @ ~ ! F F F F D F F F J F D . $ -.l ",
" .l #.#.D F S D Y F F F L h 5   o | ^ L Y L Q T Y Q Y T Y T L T D L T L T Y Q Y L Y T k d   # ~ ~ F F F D Z F F F F U F   o =.l ",
" .l %.) U U D U F F F F Y y 4   O | ~ L Y T L T Y Y L L L T T Y L L T Y L T T L L Y T k e   # ~ ! F F F F D F L F Y F D   o -.l ",
" .l #.#.D U U U F F Y J Y y 5   O | @.T T T Q L Y Y L J L T Y Y T L T Y T Y T T Q T Q k d   # ~ ~ U J Y F U U F F F Y F . $ =.l ",
" .l #.#.D I Y F F A e u y q 0 X O | } h k h D T Y Y Y Y T Y Y L T L Y Y Y Y Y D k k k h y   # ( R w y w Z L F F U U F D o o -.c ",
"..c $.@.J Y J L Y k - 2 2 0 0 X $ | } 8 d e v } T T T P P T T T T T T T P Q } A y f f f d   @ @.R 1 5 , j Y L J F L Y J   O -.l ",
"..s T Y y y r y y e 5 7 6 q 6 X X N N f f f h k h k k k k k k k k k k k k k k f f f f h f . o h h 5 w 5 e y r y y y y y   O =.l ",
"..s D M - < : > 2 4 6 5 6 6 5 @ o 8 d f f f d d y f d y 8 y d y d f 8 8 8 d d d f f f f d o o - 2 5 5 4 6 2 2 2 1 4 4 5   $ =.l ",
"o.s   o   X X X X X X X X X X       o             .   .           .     .           X X         X   X   X X X X X X X X   o =.l ",
"+.x   O @ o @ o @ @ o @ @ @ @ @ O o o O o O O o O o O o o o o o o o o o O o O O o   o o o @ o o @ $ @ $ o o @ @ @ @ o o   % -.c ",
"+.;.=.=.=.=.=.=.=.=.=.=.=.=.=.=.=.=.=.=.=.=.=.=.=.=.=.=.=.=.*.=.=.*.=.=.=.=.=.=.=.=.=.=.=.=.=.=.=.=.=.=.=.=.=.=.=.=.=.*.*.*.-.l ",
"c b b x x z c x x z x x x x x z l z l l c l l z l l l l z l z l c c z l l l l c x l l x l c c l c c c c l l l x l l z z z l l i "
};
