/* XPM */
static char *fb812455dc5345b9fae01c82bbcd993ffZ1D4jEsvSpHj0is[] = {
/* columns rows colors chars-per-pixel */
"64 64 152 2 ",
"   c #02141D",
".  c #021721",
"X  c #031A25",
"o  c #081B25",
"O  c #051E29",
"+  c #0A1F29",
"@  c #06212D",
"#  c #0B222D",
"$  c #052532",
"%  c #0C2632",
"&  c #062936",
"*  c #0D2935",
"=  c #062A38",
"-  c #0E2C39",
";  c #102732",
":  c #102A36",
">  c #112D3A",
",  c #0E313E",
"<  c #13313E",
"1  c #19323E",
"2  c #0E3341",
"3  c #143542",
"4  c #1A3643",
"5  c #153846",
"6  c #1B3946",
"7  c #163B49",
"8  c #1B3D4B",
"9  c #213F4C",
"0  c #1D414E",
"q  c #1E4452",
"w  c #1F4857",
"e  c #1F4959",
"r  c #22424E",
"t  c #224553",
"y  c #244956",
"u  c #2A4A56",
"i  c #244D5C",
"p  c #294E5B",
"a  c #314F5A",
"s  c #27505F",
"d  c #2B505E",
"f  c #32505B",
"g  c #234F60",
"h  c #255161",
"j  c #2B5565",
"k  c #2B5665",
"l  c #285667",
"z  c #295565",
"x  c #2C5464",
"c  c #2C5565",
"v  c #2F5664",
"b  c #2F5766",
"n  c #2B5362",
"m  c #2D5867",
"M  c #2E5867",
"N  c #2F5867",
"B  c #2E5867",
"V  c #295768",
"C  c #295869",
"Z  c #2A5869",
"A  c #2B5A6A",
"S  c #2D5968",
"D  c #2C5869",
"F  c #2F5969",
"G  c #2F5A69",
"H  c #2C596A",
"J  c #2D5B6C",
"K  c #2E5B6C",
"L  c #2F5D6D",
"P  c #2E5D6E",
"I  c #2F5D6F",
"U  c #2E5A6B",
"Y  c #315360",
"T  c #315461",
"R  c #315562",
"E  c #325563",
"W  c #325663",
"Q  c #335663",
"!  c #305464",
"~  c #335765",
"^  c #325663",
"/  c #305967",
"(  c #325866",
")  c #305768",
"_  c #305968",
"`  c #315968",
"'  c #325B69",
"]  c #315D6B",
"[  c #355C6B",
"{  c #315C6C",
"}  c #305D6C",
"|  c #305E6D",
" . c #305D6E",
".. c #315D6E",
"X. c #315E6F",
"o. c #315F6F",
"O. c #325E6F",
"+. c #365D6C",
"@. c #345E6D",
"#. c #345F6E",
"$. c #325D6C",
"%. c #3A5F6C",
"&. c #2E5F71",
"*. c #305F71",
"=. c #315F70",
"-. c #35606F",
";. c #2F6273",
":. c #336170",
">. c #316072",
",. c #326072",
"<. c #316272",
"1. c #376070",
"2. c #366270",
"3. c #336573",
"4. c #316274",
"5. c #366374",
"6. c #346377",
"7. c #336576",
"8. c #326477",
"9. c #336577",
"0. c #366475",
"q. c #346476",
"w. c #356577",
"e. c #356677",
"r. c #336272",
"t. c #396070",
"y. c #386271",
"u. c #386573",
"i. c #396475",
"p. c #3A6575",
"a. c #396776",
"s. c #3A6676",
"d. c #3A6776",
"f. c #396676",
"g. c #3A6876",
"h. c #3A6877",
"j. c #336578",
"k. c #346579",
"l. c #356679",
"z. c #35677B",
"x. c #336678",
"c. c #3A6779",
"v. c #35687B",
"b. c #36687C",
"n. c #35687A",
"m. c #3A6978",
"M. c #3A6B7B",
"N. c #3C6D7F",
"B. c #3B6B7C",
"V. c #3C6E80",
"C. c #3D7285",
"Z. c #437888",
/* pixels */
"@ 3 3 3 5 5 3 3 5 8 8 0 0 6 8 q 8 8 q q q 8 7 5 3 < 3 - X X @ % * - - * * * * - > > - * & & * - 3 3 < - - - < 3 3 < > > 6 6 3 @ ",
"i F ' v v / [ #.#.1.s.s.M.M.N.0.| v.8.4.&.&.J F J =.L p * - t n l l m F L :.8.b.l.l.x.8.l.l.6.x.l.x.0.r.r.s.s.h.s.s.s.y.y.~ y - ",
"| #.' i y y y y y y i p n m F p h i i i i i i i p h l 8 % 3 ] l i i i i i h l C l C C J L | :.:.L F m ' ' ~ R R R R R Y R p 6 = ",
"| 1.p i p u y y u y i y i y i q w i i i i i i s h i z t * 5 :.p i i i i i i i i i i i i i i p i i i i y u u u u u u u p p n 8 $ ",
"| s.s p p i y u y y y y y i i y i i i p i i i i i e l i & 5 3.n w i i g g g h h h p p p p p p i p p p p p p p p p p p h h n 5 $ ",
"| m.d p i i i y i i y y y i p y i h p i i i i i i i n q $ 2 0.v i i i i g h h h h s p p p p i i i i i p p p p p p p g g h y 2 & ",
"F B.d i i i i y i y y y i i p i i h h h p i i i i p p 6 $ 2 :.n i i i i g h g h h h h h p i i i i i i p p p p p p p g h p p - $ ",
"p m.R i i i i i i i y p i p i n t h h p p i i i p i n 8 & , ;.n i i i i i g h h h p p h i i i i i i p p p p p p p p p t 8 q % $ ",
"p m.n y i i i i i i i i p p h / v y p h h i i p i i h t - = :.n y i i i i p p p g p g g i i i i i p p p p p p p p y t y h i < $ ",
"F s.p y i i i i i p p p p p s n h n y 0 p i i p i i s p < & L n i i i i p p i p p p i i i i i i i p p p s p y y u u p p i p 3 = ",
"=.#.y y i i i i p p p p p p s s d p n y y p i i p p p n 3 * F F w i i i i p i i i i i i i i i p p p s d p t p p p p p p p p > & ",
"=.v i i i i i p p p i h h n n p s p p s y i p p i i h p < , L m i i y i i i i i i i i i i i p p p p p u u p p p p p p p i p > $ ",
"Z n i p i i i p p p p h h n d p p p p p t y p p p i s y & 3 L l i i i y p p i i i i i i i i i i p u y s d n n n n h h h i n 5 $ ",
"l F p p i p p s s n h h n d d s p p p p y r p p p p n t % 5 :.n i p p p p i y i i i i i i p i p p y n n n n p p n z h h h t 3 & ",
"F v 8 6 4 4 6 8 8 6 6 8 t 6 4 6 4 6 4 6 > 1 4 4 6 9 t r - , l 8 4 4 1 1 4 6 3 < < 4 8 8 6 < < > > 6 r r r 4 > : > 5 q 8 > % % $ ",
"7 7 % $ @ O O @ @ @ @ % * # + % % : * % @ % % % # % * > @ @ < # @ + + @ # # O O O # % : ; + o o + # % * * # O # @ O @ @ O O O O ",
"7 7 7 7 5 5 5 3 3 3 - * * * $ $ @ O O @ 5 7 , - 3 5 8 7 , * = 3 3 7 3 3 2 , 3 3 3 3 3 = @ O X , 7 2 * $ 2 , 3 2 2 3 7 7 3 3 3 3 ",
"m.M.h.s.s.0.s.s.s.h.s.1.-.#.' { v 3 % n m.s.c.m.N.N.B.m.y.#.s.N.N.M.s.1.:.s.s.c.s.1.1.| i $ * :.C.C.N.| v.N.N.N.N.V.V.V.V.N.N.N.",
"F ' ] | F l l l v v F [ | #.#.#.d 3 3 1.[ p n / / n n d s n m m n s p g p n n n d p i p C 5 , :.| L ;.x.1.v.:.L l v / F F v v v ",
"d n n h h h i i i i i p p p p s t > - / p p p p p p p p p p i i i i p i y i y y y y y i q % 3 | h w e i s h p i i p i i p p p d ",
"~ R n n l h h g p p p p d d s n t - < m d p a f f p p p p p p p p p p p p u y i y y i i q % 5 :.h i i i t t s p p p p p p d n ~ ",
"n Y n n n h g p p p p d d d n h t * 3 / p a f f a p p p p p p p p p p p p u y i i i i i 8 @ 8 | i i i p t y p p p p p p s n n v ",
"n n n s n h g p p s s d n n h h t % < R f a f f a p p s g p p p p p p p p p u i i i i i 6 X q 0.i i p y i p p i p p p p s n n n ",
"n n s p d n p p d s d d n n h l t * > ~ f a f f p p s h s p p p p p p p p p p i y y i i 5 X 3 V.:.i p y i i p p p p p i p n n n ",
"n n p p p h p p p p p d n h h l t ; % ~ Q a f d s n h h n s d d p p p p p p i i y y y i 6 O , V.V.i i p i p p i p p p y i p p s ",
"p p p p i p p p p p p s s h h l t # < %.Q p p p h h h n n n d d p p p p p i i y y y y i 0 O 3 V.0.y i i i i i y i i y i i i i p ",
"i p i i i i p p p p p p p h h n t # * [ ~ d n s n n s p d d d d p p p p i i i y y y w y t # 3 M.s i i i i i i i i i i i i i i i ",
"i i i i i p p p p p p p s h s n t % * -.~ p s p h n s p p p p p y s s p i i y y y i y y 8 @ 3 | i i i i i i i i i i i i i i i i ",
"h h h i g p p p p p n h h l v ~ t * - #.| h n n l v v v v v v n h n n ~ n s p p i i i y 3 O 0 F i i i i i i i i i i i i p p h h ",
"8 0 0 0 8 q t t t t t q q t t r 6 % * ' l y y y y y y t t t t 8 q t r t y t t q q 0 0 8 < @ 8 p q q q q q q q 0 0 q q q t q 0 8 ",
"% # # # # # % % : % % % % % % % ; @ % 8 < * * ; % # # # # # # # # # # # # # % % % % % % % O & < - * % % * > * % * * * : : % % ; ",
"o . o O . . X O O o . . . o o o O O X O X . . . . . .         . .   O # O X . X X O X X X O O X X X X . . X X X X X . X X X X X ",
"0 q q 0 > . 3 8 8 0 0 q t t t r t t q t y y y i t t t 0 8 6 8 8 % O q q p i w w i i i i i i p p i w w q 8 0 q q q 7 7 8 q q t q ",
"-.F F h 5 X 8 n v v v v n n n d s n n v F U L :.:.| | ] F F m y & * n v.Z.v.x.8.:.:.1.1.' ' L L :.:.:.;.:.4.;.:.F F F F ' | 1.s.",
"p i i i < X 8 n i i i p p p p p i i i i p p p h s s p p p p p 6 # * m N.l e e i i y y i i p i i i i i i i i i i t y y y y i p s ",
"i i i t > O 0 y i i p p p p p p s p p p p p s n h h h i p p p 6 # * m =.e i i i i p p p p p p i p i i p i i w i y t i y i i i i ",
"i i g t - O t i w w p i p p p i p s p p p n s n h h p p p p p 5 O * l C i i p i i p p p p p p p p p p p i i i i i y i i i i i i ",
"i i h t - O t i w i i p p s s p p h p p s d s n s s p p p i i 5 O * l l i p p i i p p p p p p p p p p p p i i i p y y i i i i i ",
"i i h t > X t p w i i p p s h h p g s s s s s s s p p s i i h 5 O - v n i p p i i i p p p p p p p p p p i i i i p y i i i i i i ",
"i p h q * X w h i i i p p p h p p h s p s s s s s s s p g i g 5 o : v l i p i i i i i i p p p p p p p i g p i p p i y i i i i i ",
"h g h 8 * X w h i i i p p i h i g h p p n n n n n h p i p i s 6 o - n v p p i i p i i i p p p p p p i i g p p p y y i i i i i g ",
"h h h 8 % X i h i i p p p i h i h s s s n n n n h i i p i p s 8 o * F n p p p i i i i i p p p p p p i i i p p i p y i i i g g h ",
"h h h 8 * X i n i i i i i i h i p s p s s n n h g g p i i p n 9 O % m p i p p p p i i p p p p p p i i i p n i i p s i i i g h h ",
"h h h 6 * X q n i i p p i i g p i s p p p p i i g i i p p p s t + * v p i p p p i i i p p h s s h i i i i p p p i v i e i i h z ",
"h h h 5 - X 0 s p p y i w w i t t y y i p p i i i i i p p s d r # * n s s p n n h h s p p p p p h h p p p i p p p n h h h h z l ",
"5 5 3 < - X 3 6 3 < < > > - : % % : : < 3 5 3 3 3 3 < < 1 1 1 1 # * y 8 6 6 6 6 8 6 6 5 5 5 5 8 8 8 8 6 6 6 6 6 6 3 4 8 6 6 8 6 ",
"O O @ # @ X O O . . o . . .       . . . . o o . . . . .       o . X O o O O o + % # O X X X X O # # # # # @ @ # # # o o O O O X ",
"2 = @ O X O @ * , 3 3 3 - $ % - 3 5 5 3 - . o * > > * % % % % * * - * - , , - @ X @ - 5 7 7 3 , * @ O X O @ * @ X X X % * % * * ",
"n.;.J z w i C L =.:.;.&.=.L J J F Z l g q @ * 0 i v ) ' | #.1.1.:.L L L L =.0.' p 1.0.r.| C m F m n s y n v t > X @ 8 p l l C L ",
"C &.4.x.v.v.8.:.| F l s s n v n p i i i > . * y 1.n n / v v ' F Z z h h n s ' u #.0.1.F h p p s n v / ~ v v t % . - s =.z l l l ",
"i i i i i i i i y t t y y y y y i i i i > . > y p y i i i p p i i p p p p i y t t y i i i i i y y y y y i i p < . * h l g h g i ",
"h g i i i i i i i i i y y i i p i i i i > . > t p p p p s s i g h h h p p i i p t i i i i p i p p y i i i i p 8 . # l J i h i h ",
"i i i i i p i i i w t y y i i i i i i i > . > y p i p d d s s p n h h s p i i i t i i i p p p y y i w i i i i 4   X h ;.i g h n ",
"i i i i p p i i i i y i y i i i i i i i > . < y i i s Y n s n n n v n s i i i t q i i i p d p i y i i e i i i <     q x.h i h i ",
"p i p s p i i i i i i i i i i i i i i i * . 3 y y p d d n n n ~ v ~ n p i i i t i i i p p p p i i i i i i i i >     q l.h e p p ",
"p p p p i i i i i i i i p i i i i i i t * . 3 y y p p p s n s n n n n n p i i 0 i i i p p p i i i i p i i i i >   . i 0.i p n p ",
"p p p i y i i p i i i p p i y i i i i q * . 3 y y i i p n n n s n n n n p i i q w e i h p p p i i p p p i i i 3   X n F i p p p ",
"p p p i y i i p p i i p i i i i i w i q - . 5 y y i p s n n n n s s s s p i i i q e i n n s p p i p p p i w i 3   # v n y p i p ",
"i p p i i i i i i i i i i y y y i i w w > . 5 y y i p n n n p p p p p i i i i g 8 q i h n p p i i i p i i i i 3   * n i i i p i ",
"i p p i i i i i i i i i i i i p p i w i < . 3 i i i p s n h p p p p p p p i i i i q i i p p p i i w w i i w i 4   > n y y p i i ",
"p p p p i i i i i i i p p i y i i e w i 3   , y i i p i h g i p p p p p p p i g h p g i i i i i i i i e i i p 6   > n i y p p p ",
"8 t t t t t t w w i p y y y i i i i i q > . , q w i i i i t t t i i y y y y y w q 8 0 q w w q q q q q y i y t >   > i y y y t r ",
"# # % % % % % * * < 4 > > > < > > > > * % X @ * % # # # # # @ + # # # # # # + # @ o + + @ # # + + + + @ # # @ + X # # + # # # # ",
"X X X X X X O o X O O O o O # O o . o O O X X o o o o .                                         .   . . . . . . . .       . o X "
};
